<svg width="58" height="40" viewBox="0 0 58 40" fill="none" xmlns="http://www.w3.org/2000/svg">
<path d="M11.375 26.0748C10.1375 29.1873 8.1875 32.2623 5.58125 35.2248C4.75625 36.1623 4.64375 37.5123 5.31875 38.5623C5.84375 39.3873 6.70625 39.8373 7.64375 39.8373C7.90625 39.8373 8.16875 39.8186 8.43125 39.7248C13.9438 38.1123 26.825 32.3936 27.1812 14.0561C27.3125 6.98734 22.1375 0.912342 15.4062 0.218592C11.675 -0.156408 7.9625 1.06234 5.20625 3.53734C3.84306 4.77362 2.75351 6.28135 2.00759 7.96369C1.26168 9.64604 0.875887 11.4658 0.875 13.3061C0.875 19.4936 5.2625 24.9123 11.375 26.0748ZM45.3312 0.218592C41.6187 -0.156408 37.9062 1.06234 35.15 3.53734C33.7867 4.77354 32.6971 6.28126 31.9512 7.96362C31.2053 9.64598 30.8195 11.4658 30.8187 13.3061C30.8187 19.4936 35.2062 24.9123 41.3187 26.0748C40.0812 29.1873 38.1312 32.2623 35.525 35.2248C34.7 36.1623 34.5875 37.5123 35.2625 38.5623C35.7875 39.3873 36.65 39.8373 37.5875 39.8373C37.85 39.8373 38.1125 39.8186 38.375 39.7248C43.8875 38.1123 56.7687 32.3936 57.125 14.0561V13.7936C57.125 6.83734 52.0062 0.912342 45.3312 0.218592Z" fill="#DBF6FD"/>
</svg>
