<svg width="12" height="10" viewBox="0 0 12 10" fill="none" xmlns="http://www.w3.org/2000/svg">
<path d="M11.2369 2.86713C10.925 2.44943 10.6017 2.07681 10.2679 1.7492C10.1973 2.00187 10.0784 2.25103 9.91679 2.47543C9.69901 2.77783 9.33118 3.09875 8.99825 3.09875C8.81147 3.09875 8.64918 2.95563 8.6244 2.75917C8.59748 2.54568 8.74326 2.35005 8.95 2.32225C9.07537 2.30541 9.39228 2.01005 9.52942 1.57856C9.60287 1.34748 9.51364 1.09374 9.31787 0.95856C9.18911 0.869543 9.05711 0.785625 8.92216 0.706987C8.76341 0.614593 8.57198 0.604895 8.40606 0.682694C8.14032 0.807275 7.7472 1.04508 7.54034 1.43437C7.30907 1.86961 7.19684 2.42207 7.24695 2.87766C7.27026 3.08964 7.12524 3.28802 6.92029 3.31487C6.71148 3.34223 6.52194 3.18841 6.49766 2.97329C6.38623 1.9863 6.80398 0.758008 7.63851 0.167779C6.57898 -0.115202 5.44077 -0.0398636 4.2442 0.391088C4.69262 0.738369 4.9003 1.22699 4.86619 1.69452C4.85128 1.89924 4.68578 2.0551 4.49017 2.05513C4.24887 2.05513 4.09748 1.85265 4.11336 1.63626C4.14223 1.2423 3.77139 0.921159 3.39549 0.818385C3.26748 0.783397 3.13289 0.786199 3.00497 0.821602C2.12298 1.06557 1.46438 1.5732 1.03964 2.3367C0.54048 3.23398 1.45369 4.38595 2.40915 4.39007C2.61674 4.39097 2.79045 4.56419 2.79113 4.77858C2.79184 4.9945 2.62257 5.16976 2.41366 5.16976C1.54468 5.16976 0.601514 4.52679 0.266881 3.5798C-0.218364 4.61092 -0.0248129 5.5814 0.708622 6.45414C1.1497 7.27272 1.86339 7.56755 2.75258 7.29765C3.09089 7.19495 3.3782 6.9589 3.54278 6.63683C3.73442 6.26178 3.84674 5.68605 3.76073 5.45484C3.68598 5.25388 3.78314 5.02835 3.97773 4.95113C4.17241 4.87387 4.39068 4.97426 4.46547 5.17525C4.69635 5.79593 4.40576 7.11978 3.62469 7.74237C4.1985 8.23833 4.94605 8.24905 5.67427 8.08548C6.00734 8.52121 6.61097 8.57976 6.98083 8.58493L8.10356 9.87118C8.13895 9.91173 8.1822 9.94415 8.2305 9.96634C8.27879 9.98853 8.33107 10 8.38393 10H9.16582C9.42987 10 9.59664 9.75625 9.54183 9.51949L9.43935 9.07684C11.332 8.66592 12.3424 6.91341 11.5037 5.8962C12.2783 4.92991 12.1134 3.7592 11.2369 2.86713ZM4.86456 3.88127C4.2987 4.16854 3.53901 4.18723 3.16969 3.66101C3.04734 3.4867 3.085 3.24294 3.25377 3.11656C3.42258 2.99025 3.65859 3.02909 3.78094 3.20342C3.87055 3.33107 4.21495 3.34669 4.54179 3.17645C4.58485 3.15401 4.96027 2.95024 4.88492 2.70483C4.8219 2.4996 4.93191 2.28048 5.13063 2.21538C5.3294 2.15037 5.54154 2.26392 5.60455 2.46917C5.70253 2.78824 5.64249 3.11191 5.4513 3.38814C5.5883 3.59705 5.78114 3.74833 5.93914 3.67421C6.12898 3.58518 6.35273 3.67195 6.43891 3.86799C6.5251 4.06401 6.44111 4.29509 6.25131 4.38415C5.73818 4.62473 5.21004 4.3686 4.86456 3.88127ZM9.35791 7.23294C9.32134 7.44513 9.12515 7.58616 8.92011 7.54842C8.71486 7.5107 8.57809 7.3083 8.61464 7.09629C8.74704 6.32778 6.95521 5.46215 6.54751 6.23997C6.44823 6.42931 6.21915 6.49961 6.03584 6.39718C5.85251 6.29465 5.78437 6.05806 5.88362 5.86874C6.21401 5.23857 6.94487 5.00518 7.76919 5.25478C7.89576 4.85085 7.91069 4.33747 7.55268 4.14127C7.36852 4.04035 7.29845 3.80437 7.39614 3.61418C7.49384 3.42398 7.72231 3.35159 7.90652 3.45251C8.56575 3.81375 8.7836 4.64647 8.46145 5.57394C8.45747 5.58542 9.53469 6.20698 9.35791 7.23294ZM10.2787 4.88225C9.61129 5.01636 9.65793 5.00954 9.60888 5.00954C9.43185 5.00954 9.27385 4.88025 9.23877 4.69408C9.19895 4.48273 9.33257 4.27809 9.53719 4.23696L10.1345 4.11693C10.339 4.07576 10.5373 4.21381 10.5771 4.42513C10.617 4.63648 10.4834 4.84115 10.2787 4.88225Z" fill="#2180A7"/>
</svg>
