<svg width="64" height="64" viewBox="0 0 64 64" fill="none" xmlns="http://www.w3.org/2000/svg">
<g clip-path="url(#clip0_47_218)">
<path d="M37.7865 25.2782C39.0612 25.8169 40.254 26.5316 41.3302 27.4016V21.2612C41.3302 16.1549 37.1753 12 32.069 12H31.9265C26.8248 12 22.6699 16.1549 22.6699 21.2612V27.4016C23.7461 26.5316 24.9389 25.8169 26.2135 25.2782C26.5582 25.1311 26.9121 24.9978 27.266 24.8783V21.2612C27.266 18.6873 29.3573 16.5961 31.9311 16.5961H32.0736C34.6474 16.5961 36.7386 18.6873 36.7386 21.2612V24.8829C37.0879 24.9978 37.4418 25.1311 37.7865 25.2782Z" fill="#B3D8E5"/>
<path d="M18.9746 38.9746C18.9746 46.1675 24.8071 52 32 52C39.1929 52 45.0254 46.1721 45.0254 38.9746C45.0254 35.4402 43.6144 32.2321 41.3302 29.8834C40.0433 28.5644 38.4806 27.5164 36.734 26.8317C35.2679 26.2572 33.6684 25.9446 32 25.9446C30.3317 25.9446 28.7322 26.2572 27.266 26.8317C25.5195 27.5119 23.9568 28.5598 22.6699 29.8834C20.381 32.2321 18.9746 35.4402 18.9746 38.9746ZM28.6448 36.3456C28.6908 34.5669 30.1385 33.1192 31.9172 33.0777C33.8062 33.0318 35.3551 34.5531 35.3551 36.4329C35.3551 36.6306 35.3367 36.8236 35.3046 37.0074C35.139 37.9588 34.5738 38.7769 33.7832 39.2734C33.4568 39.4802 33.2914 39.8662 33.3742 40.2385L34.3716 44.9679C34.4314 45.2529 34.2153 45.5241 33.9211 45.5241H30.0788C29.7847 45.5241 29.5686 45.2575 29.6284 44.9679L30.6257 40.2385C30.7039 39.8617 30.543 39.4755 30.2167 39.2687C29.4262 38.7723 28.8609 37.9588 28.6953 37.0028C28.6575 36.7859 28.6405 36.5658 28.6448 36.3456Z" fill="#2180A7"/>
</g>
<rect x="1" y="1" width="62" height="62" rx="19" stroke="#C2F1FD" stroke-width="2"/>
<defs>
<clipPath id="clip0_47_218">
<rect width="40" height="40" fill="white" transform="translate(12 12)"/>
</clipPath>
</defs>
</svg>
