<svg width="20" height="20" viewBox="0 0 20 20" fill="none" xmlns="http://www.w3.org/2000/svg">
<path d="M13.5186 3.95396V2.78448C13.5186 2.47712 13.2667 2.22223 12.963 2.22223C12.6593 2.22223 12.4074 2.47712 12.4074 2.78448V3.90898H7.59263V2.78448C7.59263 2.47712 7.34078 2.22223 7.03708 2.22223C6.73337 2.22223 6.48152 2.47712 6.48152 2.78448V3.95396C4.48152 4.14137 3.51115 5.34833 3.363 7.14003C3.34819 7.35744 3.52597 7.53736 3.73337 7.53736H16.2667C16.4815 7.53736 16.6593 7.34994 16.6371 7.14003C16.4889 5.34833 15.5186 4.14137 13.5186 3.95396ZM15.926 8.66185H4.07411C3.66671 8.66185 3.33337 8.9992 3.33337 9.41152V14.0295C3.33337 16.2785 4.44449 17.7778 7.03708 17.7778H12.963C15.5556 17.7778 16.6667 16.2785 16.6667 14.0295V9.41152C16.6667 8.9992 16.3334 8.66185 15.926 8.66185ZM7.93337 14.9366C7.89634 14.9665 7.8593 15.004 7.82226 15.0265C7.77782 15.0565 7.73337 15.079 7.68893 15.094C7.64448 15.1165 7.60004 15.1315 7.5556 15.139C7.50374 15.1465 7.4593 15.154 7.40745 15.154C7.31115 15.154 7.21486 15.1315 7.12597 15.094C7.02967 15.0565 6.9556 15.004 6.88152 14.9366C6.74819 14.7941 6.66671 14.5992 6.66671 14.4043C6.66671 14.2094 6.74819 14.0145 6.88152 13.872C6.9556 13.8046 7.02967 13.7521 7.12597 13.7146C7.2593 13.6546 7.40745 13.6396 7.5556 13.6696C7.60004 13.6771 7.64448 13.6921 7.68893 13.7146C7.73337 13.7296 7.77782 13.7521 7.82226 13.7821L7.93337 13.872C8.06671 14.0145 8.14819 14.2094 8.14819 14.4043C8.14819 14.5992 8.06671 14.7941 7.93337 14.9366ZM7.93337 12.3127C7.79263 12.4477 7.60004 12.5301 7.40745 12.5301C7.21486 12.5301 7.02226 12.4477 6.88152 12.3127C6.74819 12.1703 6.66671 11.9754 6.66671 11.7805C6.66671 11.5855 6.74819 11.3906 6.88152 11.2482C7.08893 11.0383 7.41486 10.9708 7.68893 11.0908C7.78523 11.1283 7.86671 11.1807 7.93337 11.2482C8.06671 11.3906 8.14819 11.5855 8.14819 11.7805C8.14819 11.9754 8.06671 12.1703 7.93337 12.3127ZM10.526 14.9366C10.3852 15.0715 10.1926 15.154 10 15.154C9.80745 15.154 9.61486 15.0715 9.47411 14.9366C9.34078 14.7941 9.2593 14.5992 9.2593 14.4043C9.2593 14.2094 9.34078 14.0145 9.47411 13.872C9.74819 13.5947 10.2519 13.5947 10.526 13.872C10.6593 14.0145 10.7408 14.2094 10.7408 14.4043C10.7408 14.5992 10.6593 14.7941 10.526 14.9366ZM10.526 12.3127L10.4149 12.4027C10.3704 12.4327 10.326 12.4552 10.2815 12.4702C10.2371 12.4926 10.1926 12.5076 10.1482 12.5151C10.0963 12.5226 10.0519 12.5301 10 12.5301C9.80745 12.5301 9.61486 12.4477 9.47411 12.3127C9.34078 12.1703 9.2593 11.9754 9.2593 11.7805C9.2593 11.5855 9.34078 11.3906 9.47411 11.2482C9.54078 11.1807 9.62226 11.1283 9.71856 11.0908C9.99263 10.9708 10.3186 11.0383 10.526 11.2482C10.6593 11.3906 10.7408 11.5855 10.7408 11.7805C10.7408 11.9754 10.6593 12.1703 10.526 12.3127ZM13.1186 14.9366C12.9778 15.0715 12.7852 15.154 12.5926 15.154C12.4 15.154 12.2074 15.0715 12.0667 14.9366C11.9334 14.7941 11.8519 14.5992 11.8519 14.4043C11.8519 14.2094 11.9334 14.0145 12.0667 13.872C12.3408 13.5947 12.8445 13.5947 13.1186 13.872C13.2519 14.0145 13.3334 14.2094 13.3334 14.4043C13.3334 14.5992 13.2519 14.7941 13.1186 14.9366ZM13.1186 12.3127L13.0074 12.4027C12.963 12.4327 12.9186 12.4552 12.8741 12.4702C12.8297 12.4926 12.7852 12.5076 12.7408 12.5151C12.6889 12.5226 12.6371 12.5301 12.5926 12.5301C12.4 12.5301 12.2074 12.4477 12.0667 12.3127C11.9334 12.1703 11.8519 11.9754 11.8519 11.7805C11.8519 11.5855 11.9334 11.3906 12.0667 11.2482C12.1408 11.1807 12.2149 11.1283 12.3112 11.0908C12.4445 11.0308 12.5926 11.0158 12.7408 11.0458C12.7852 11.0533 12.8297 11.0683 12.8741 11.0908C12.9186 11.1058 12.963 11.1283 13.0074 11.1582L13.1186 11.2482C13.2519 11.3906 13.3334 11.5855 13.3334 11.7805C13.3334 11.9754 13.2519 12.1703 13.1186 12.3127Z" fill="#10162B"/>
</svg>
