<svg width="20" height="20" viewBox="0 0 20 20" fill="none" xmlns="http://www.w3.org/2000/svg">
<path d="M13.5185 3.95396V2.78448C13.5185 2.47712 13.2666 2.22223 12.9629 2.22223C12.6592 2.22223 12.4074 2.47712 12.4074 2.78448V3.90898H7.59257V2.78448C7.59257 2.47712 7.34072 2.22223 7.03702 2.22223C6.73331 2.22223 6.48146 2.47712 6.48146 2.78448V3.95396C4.48146 4.14137 3.51109 5.34833 3.36294 7.14003C3.34813 7.35744 3.52591 7.53736 3.73331 7.53736H16.2666C16.4815 7.53736 16.6592 7.34994 16.637 7.14003C16.4889 5.34833 15.5185 4.14137 13.5185 3.95396ZM15.9259 8.66185H4.07405C3.66665 8.66185 3.33331 8.9992 3.33331 9.41152V14.0295C3.33331 16.2785 4.44442 17.7778 7.03702 17.7778H12.9629C15.5555 17.7778 16.6666 16.2785 16.6666 14.0295V9.41152C16.6666 8.9992 16.3333 8.66185 15.9259 8.66185ZM7.93331 14.9366C7.89628 14.9665 7.85924 15.004 7.8222 15.0265C7.77776 15.0565 7.73331 15.079 7.68887 15.094C7.64442 15.1165 7.59998 15.1315 7.55553 15.139C7.50368 15.1465 7.45924 15.154 7.40739 15.154C7.31109 15.154 7.21479 15.1315 7.12591 15.094C7.02961 15.0565 6.95554 15.004 6.88146 14.9366C6.74813 14.7941 6.66665 14.5992 6.66665 14.4043C6.66665 14.2094 6.74813 14.0145 6.88146 13.872C6.95554 13.8046 7.02961 13.7521 7.12591 13.7146C7.25924 13.6546 7.40739 13.6396 7.55553 13.6696C7.59998 13.6771 7.64442 13.6921 7.68887 13.7146C7.73331 13.7296 7.77776 13.7521 7.8222 13.7821L7.93331 13.872C8.06665 14.0145 8.14813 14.2094 8.14813 14.4043C8.14813 14.5992 8.06665 14.7941 7.93331 14.9366ZM7.93331 12.3127C7.79257 12.4477 7.59998 12.5301 7.40739 12.5301C7.21479 12.5301 7.0222 12.4477 6.88146 12.3127C6.74813 12.1703 6.66665 11.9754 6.66665 11.7805C6.66665 11.5855 6.74813 11.3906 6.88146 11.2482C7.08887 11.0383 7.41479 10.9708 7.68887 11.0908C7.78516 11.1283 7.86665 11.1807 7.93331 11.2482C8.06665 11.3906 8.14813 11.5855 8.14813 11.7805C8.14813 11.9754 8.06665 12.1703 7.93331 12.3127ZM10.5259 14.9366C10.3852 15.0715 10.1926 15.154 9.99998 15.154C9.80739 15.154 9.61479 15.0715 9.47405 14.9366C9.34072 14.7941 9.25924 14.5992 9.25924 14.4043C9.25924 14.2094 9.34072 14.0145 9.47405 13.872C9.74813 13.5947 10.2518 13.5947 10.5259 13.872C10.6592 14.0145 10.7407 14.2094 10.7407 14.4043C10.7407 14.5992 10.6592 14.7941 10.5259 14.9366ZM10.5259 12.3127L10.4148 12.4027C10.3704 12.4327 10.3259 12.4552 10.2815 12.4702C10.237 12.4926 10.1926 12.5076 10.1481 12.5151C10.0963 12.5226 10.0518 12.5301 9.99998 12.5301C9.80739 12.5301 9.61479 12.4477 9.47405 12.3127C9.34072 12.1703 9.25924 11.9754 9.25924 11.7805C9.25924 11.5855 9.34072 11.3906 9.47405 11.2482C9.54072 11.1807 9.6222 11.1283 9.7185 11.0908C9.99257 10.9708 10.3185 11.0383 10.5259 11.2482C10.6592 11.3906 10.7407 11.5855 10.7407 11.7805C10.7407 11.9754 10.6592 12.1703 10.5259 12.3127ZM13.1185 14.9366C12.9778 15.0715 12.7852 15.154 12.5926 15.154C12.4 15.154 12.2074 15.0715 12.0666 14.9366C11.9333 14.7941 11.8518 14.5992 11.8518 14.4043C11.8518 14.2094 11.9333 14.0145 12.0666 13.872C12.3407 13.5947 12.8444 13.5947 13.1185 13.872C13.2518 14.0145 13.3333 14.2094 13.3333 14.4043C13.3333 14.5992 13.2518 14.7941 13.1185 14.9366ZM13.1185 12.3127L13.0074 12.4027C12.9629 12.4327 12.9185 12.4552 12.8741 12.4702C12.8296 12.4926 12.7852 12.5076 12.7407 12.5151C12.6889 12.5226 12.637 12.5301 12.5926 12.5301C12.4 12.5301 12.2074 12.4477 12.0666 12.3127C11.9333 12.1703 11.8518 11.9754 11.8518 11.7805C11.8518 11.5855 11.9333 11.3906 12.0666 11.2482C12.1407 11.1807 12.2148 11.1283 12.3111 11.0908C12.4444 11.0308 12.5926 11.0158 12.7407 11.0458C12.7852 11.0533 12.8296 11.0683 12.8741 11.0908C12.9185 11.1058 12.9629 11.1283 13.0074 11.1582L13.1185 11.2482C13.2518 11.3906 13.3333 11.5855 13.3333 11.7805C13.3333 11.9754 13.2518 12.1703 13.1185 12.3127Z" fill="#40AD6B"/>
</svg>
