<svg width="112" height="24" viewBox="0 0 112 24" fill="none" xmlns="http://www.w3.org/2000/svg">
<g clip-path="url(#clip0_91_1036)">
<path fill-rule="evenodd" clip-rule="evenodd" d="M29.0094 6.55362C31.3057 6.55051 33.5131 7.42636 35.1646 8.99583C34.7833 8.66844 34.2887 8.49791 33.7831 8.51961C33.2775 8.54131 32.7998 8.75356 32.449 9.11237C32.0982 9.47118 31.9013 9.94902 31.899 10.4468C31.8967 10.9446 32.0892 11.4242 32.4367 11.7861C31.4983 10.9514 30.2697 10.5034 29.0049 10.5346C27.7401 10.5659 26.536 11.0741 25.6413 11.9541C24.7467 12.8341 24.2301 14.0187 24.1984 15.2628C24.1666 16.5069 24.6221 17.7155 25.4706 18.6386C25.1016 18.3027 24.616 18.1183 24.1132 18.1231C23.6105 18.128 23.1286 18.3218 22.7664 18.6648C22.4042 19.0078 22.189 19.4741 22.1649 19.9681C22.1408 20.4621 22.3096 20.9465 22.6368 21.322C21.4273 20.0905 20.613 18.536 20.2955 16.8524C19.978 15.1687 20.1714 13.4304 20.8515 11.8541C21.5317 10.2778 22.6684 8.93333 24.1201 7.98832C25.5718 7.04331 27.2742 6.53957 29.0149 6.53992L29.0094 6.55362Z" fill="#FF256C"/>
<path fill-rule="evenodd" clip-rule="evenodd" d="M8.86916 6.55371C10.6233 6.55371 12.3381 7.0654 13.7966 8.02406C15.2551 8.98272 16.3919 10.3453 17.0632 11.9395C17.7345 13.5337 17.9101 15.2879 17.5679 16.9803C17.2257 18.6727 16.381 20.2273 15.1406 21.4474C13.9002 22.6676 12.3199 23.4985 10.5995 23.8351C8.879 24.1718 7.09571 23.999 5.47508 23.3387C3.85445 22.6783 2.46928 21.5601 1.49472 20.1253C0.520167 18.6906 0 17.0038 0 15.2782C0 12.9644 0.934427 10.7452 2.59772 9.10907C4.26101 7.4729 6.51691 6.55371 8.86916 6.55371ZM8.86916 10.424C7.89304 10.4234 6.93869 10.7077 6.12681 11.2407C5.31493 11.7738 4.68199 12.5317 4.30807 13.4187C3.93414 14.3056 3.83602 15.2818 4.02611 16.2236C4.21621 17.1654 4.68598 18.0306 5.376 18.7098C6.06603 19.3889 6.94531 19.8515 7.90263 20.039C8.85995 20.2266 9.85231 20.1306 10.7542 19.7633C11.656 19.3959 12.4269 18.7738 12.9693 17.9754C13.5116 17.1771 13.8011 16.2384 13.8011 15.2782C13.8022 14.6403 13.6755 14.0084 13.4282 13.4187C13.1808 12.829 12.8178 12.293 12.3597 11.8414C11.9017 11.3898 11.3576 11.0315 10.7587 10.7868C10.1597 10.5422 9.51767 10.4161 8.86916 10.4157V10.424Z" fill="#FF256C"/>
<path d="M17.73 1.93513C17.73 0.866387 16.8492 0 15.7627 0C14.6763 0 13.7955 0.866387 13.7955 1.93513V21.9415C13.7955 23.0103 14.6763 23.8767 15.7627 23.8767C16.8492 23.8767 17.73 23.0103 17.73 21.9415V1.93513Z" fill="#00AECB"/>
<path fill-rule="evenodd" clip-rule="evenodd" d="M13.7955 8.02563C14.9741 8.79862 15.9469 9.83862 16.632 11.0582C17.3171 12.2778 17.6946 13.6414 17.7328 15.0343V15.5195C17.6939 16.8965 17.3239 18.2448 16.6531 19.454C15.9823 20.6632 15.0297 21.6988 13.8736 22.4761C13.8211 22.2979 13.7948 22.1133 13.7955 21.9279V15.4893C13.7955 15.4181 13.7955 15.3495 13.7955 15.2783C13.7955 15.207 13.7955 15.1357 13.7955 15.0645V8.02563Z" fill="#702C63"/>
<path fill-rule="evenodd" clip-rule="evenodd" d="M24.1303 18.1426C24.52 18.1426 24.9008 18.2562 25.2248 18.4692C25.5488 18.6821 25.8013 18.9848 25.9504 19.3389C26.0995 19.693 26.1385 20.0826 26.0625 20.4585C25.9865 20.8344 25.7988 21.1797 25.5233 21.4507C25.2478 21.7218 24.8968 21.9063 24.5147 21.9811C24.1325 22.0559 23.7364 22.0175 23.3764 21.8708C23.0165 21.7241 22.7088 21.4758 22.4923 21.1571C22.2759 20.8384 22.1603 20.4637 22.1603 20.0805C22.1603 19.5665 22.3679 19.0736 22.7373 18.7102C23.1068 18.3468 23.6079 18.1426 24.1303 18.1426ZM33.8828 12.4139C33.4925 12.4145 33.1108 12.3011 32.786 12.0882C32.4612 11.8753 32.2079 11.5724 32.0582 11.2179C31.9085 10.8633 31.869 10.473 31.9448 10.0964C32.0206 9.71979 32.2083 9.37375 32.4841 9.10208C32.7598 8.8304 33.1114 8.64531 33.4941 8.57021C33.8769 8.4951 34.2737 8.53337 34.6343 8.68017C34.995 8.82697 35.3032 9.0757 35.5201 9.39489C35.737 9.71409 35.8528 10.0894 35.8528 10.4733C35.8528 10.9866 35.6461 11.4789 35.2779 11.8426C34.9098 12.2063 34.4101 12.4118 33.8884 12.4139H33.8828Z" fill="#702C63"/>
<path fill-rule="evenodd" clip-rule="evenodd" d="M35.3875 9.2179C37.0407 10.8555 37.9666 13.0709 37.9625 15.3788C37.9584 17.6866 37.0246 19.8988 35.3656 21.5308C33.7066 23.1627 31.4578 24.0813 29.1116 24.0853C26.7655 24.0893 24.5134 23.1785 22.8486 21.5523C23.2299 21.8797 23.7245 22.0502 24.2301 22.0285C24.7357 22.0068 25.2134 21.7946 25.5642 21.4358C25.915 21.0769 26.1119 20.5991 26.1142 20.1013C26.1165 19.6035 25.924 19.1239 25.5765 18.762C26.5149 19.5967 27.7435 20.0447 29.0083 20.0135C30.2731 19.9822 31.4772 19.4741 32.3719 18.594C33.2665 17.714 33.7831 16.5295 33.8148 15.2853C33.8466 14.0412 33.3911 12.8326 32.5426 11.9095C32.9054 12.2806 33.4033 12.4948 33.9266 12.5048C34.45 12.5148 34.9559 12.3199 35.3332 11.963C35.7104 11.6061 35.9281 11.1163 35.9383 10.6015C35.9485 10.0867 35.7504 9.589 35.3875 9.2179Z" fill="#00AECB"/>
<path fill-rule="evenodd" clip-rule="evenodd" d="M48.5199 6.55362C50.8153 6.55036 53.022 7.42629 54.6723 8.99583C54.876 9.16741 55.042 9.37811 55.1601 9.61502C55.2782 9.85194 55.3458 10.1101 55.3589 10.3736C55.372 10.6372 55.3302 10.9005 55.2361 11.1476C55.1421 11.3947 54.9977 11.6203 54.8119 11.8106C54.626 12.0009 54.4027 12.1518 54.1555 12.2542C53.9082 12.3565 53.6424 12.4081 53.3742 12.4059C53.1059 12.4036 52.841 12.3474 52.5956 12.2409C52.3503 12.1343 52.1296 11.9796 51.9471 11.7861C51.0087 10.9514 49.7801 10.5034 48.5154 10.5346C47.2506 10.5659 46.0464 11.0741 45.1518 11.9541C44.2572 12.8341 43.7406 14.0187 43.7088 15.2628C43.6771 16.5069 44.1326 17.7155 44.9811 18.6386C44.6105 18.3102 44.1273 18.1321 43.6286 18.1402C43.1299 18.1482 42.6528 18.3417 42.2933 18.6818C41.9338 19.0218 41.7186 19.4832 41.691 19.9731C41.6634 20.463 41.8255 20.9449 42.1445 21.322C40.9348 20.0904 40.1205 18.5356 39.8031 16.8517C39.4857 15.1678 39.6793 13.4292 40.3598 11.8528C41.0402 10.2764 42.1774 8.93199 43.6296 7.98719C45.0817 7.04239 46.7844 6.53904 48.5254 6.53992L48.5199 6.55362Z" fill="#FF256C"/>
<path fill-rule="evenodd" clip-rule="evenodd" d="M43.6408 18.1426C44.0305 18.1426 44.4113 18.2562 44.7353 18.4692C45.0593 18.6821 45.3118 18.9848 45.4609 19.3389C45.61 19.693 45.649 20.0826 45.573 20.4585C45.497 20.8344 45.3093 21.1797 45.0338 21.4507C44.7583 21.7217 44.4073 21.9063 44.0252 21.9811C43.643 22.0559 43.2469 22.0175 42.887 21.8708C42.527 21.7241 42.2193 21.4758 42.0028 21.1571C41.7864 20.8384 41.6708 20.4637 41.6708 20.0805C41.6705 19.8259 41.7212 19.5737 41.82 19.3384C41.9189 19.1032 42.064 18.8894 42.247 18.7094C42.43 18.5293 42.6473 18.3866 42.8865 18.2894C43.1257 18.1921 43.382 18.1422 43.6408 18.1426Z" fill="#702C63"/>
<path fill-rule="evenodd" clip-rule="evenodd" d="M48.5199 24C50.8153 24.0033 53.022 23.1273 54.6723 21.5578C54.876 21.3862 55.042 21.1755 55.1601 20.9386C55.2782 20.7017 55.3458 20.4436 55.3589 20.18C55.372 19.9165 55.3302 19.6531 55.2361 19.406C55.1421 19.1589 54.9977 18.9333 54.8119 18.743C54.626 18.5528 54.4027 18.4018 54.1555 18.2995C53.9082 18.1971 53.6424 18.1455 53.3742 18.1478C53.1059 18.1501 52.841 18.2062 52.5956 18.3128C52.3503 18.4193 52.1296 18.5741 51.9471 18.7675C51.0267 19.6412 49.7976 20.1295 48.5185 20.1295C47.2394 20.1295 46.0102 19.6412 45.0898 18.7675C45.4659 19.1244 45.6825 19.6137 45.6919 20.1278C45.7013 20.6418 45.5028 21.1384 45.1399 21.5085C44.9603 21.6917 44.7457 21.8383 44.5084 21.9399C44.2711 22.0416 44.0159 22.0962 43.7571 22.1008C43.2346 22.1101 42.7297 21.9147 42.3535 21.5578C44.0074 23.1304 46.2196 24.0065 48.5199 24Z" fill="#00AECB"/>
<path fill-rule="evenodd" clip-rule="evenodd" d="M85.6405 6.55362C87.9369 6.54994 90.1445 7.42587 91.7957 8.99583C91.4136 8.67415 90.921 8.50838 90.4187 8.53249C89.9164 8.5566 89.4425 8.76876 89.0941 9.1255C88.7456 9.48225 88.5491 9.95656 88.5448 10.4512C88.5404 10.9459 88.7285 11.4235 89.0706 11.7861C88.1295 10.9661 86.9058 10.5303 85.6492 10.5676C84.3926 10.605 83.1979 11.1127 82.3089 11.9872C81.42 12.8617 80.9038 14.0369 80.8658 15.273C80.8278 16.5091 81.2709 17.7129 82.1045 18.6386C81.7355 18.3027 81.2499 18.1183 80.7471 18.1231C80.2444 18.128 79.7625 18.3218 79.4003 18.6648C79.0381 19.0078 78.8229 19.4741 78.7988 19.9681C78.7747 20.4621 78.9436 20.9465 79.2707 21.322C78.0612 20.0905 77.2469 18.536 76.9294 16.8524C76.6119 15.1687 76.8053 13.4304 77.4854 11.8541C78.1656 10.2778 79.3023 8.93333 80.754 7.98832C82.2057 7.04331 83.9081 6.53957 85.6489 6.53992L85.6405 6.55362Z" fill="#FF256C"/>
<path fill-rule="evenodd" clip-rule="evenodd" d="M65.5003 6.55371C67.2544 6.55371 68.9692 7.0654 70.4277 8.02406C71.8862 8.98272 73.023 10.3453 73.6943 11.9395C74.3656 13.5337 74.5412 15.2879 74.199 16.9803C73.8568 18.6727 73.0121 20.2273 71.7717 21.4474C70.5313 22.6676 68.951 23.4985 67.2306 23.8351C65.5101 24.1718 63.7268 23.999 62.1062 23.3387C60.4856 22.6783 59.1004 21.5601 58.1258 20.1253C57.1513 18.6906 56.6311 17.0038 56.6311 15.2782C56.6311 12.9644 57.5655 10.7452 59.2288 9.10907C60.8921 7.4729 63.148 6.55371 65.5003 6.55371ZM65.5003 10.424C64.5243 10.424 63.5702 10.7087 62.7587 11.2421C61.9472 11.7755 61.3147 12.5336 60.9412 13.4206C60.5677 14.3076 60.4699 15.2836 60.6603 16.2253C60.8507 17.1669 61.3207 18.0318 62.0109 18.7107C62.701 19.3896 63.5803 19.8519 64.5375 20.0392C65.4948 20.2265 66.487 20.1304 67.3887 19.763C68.2904 19.3956 69.0611 18.7734 69.6034 17.9751C70.1456 17.1769 70.435 16.2383 70.435 15.2782C70.4361 14.6401 70.3093 14.008 70.0618 13.4181C69.8143 12.8282 69.451 12.2921 68.9926 11.8404C68.5343 11.3888 67.9899 11.0305 67.3906 10.786C66.7914 10.5416 66.149 10.4157 65.5003 10.4157V10.424Z" fill="#FF256C"/>
<path d="M74.3639 1.93513C74.3639 0.866387 73.4831 0 72.3967 0C71.3102 0 70.4294 0.866387 70.4294 1.93513V21.9415C70.4294 23.0103 71.3102 23.8767 72.3967 23.8767C73.4831 23.8767 74.3639 23.0103 74.3639 21.9415V1.93513Z" fill="#00AECB"/>
<path fill-rule="evenodd" clip-rule="evenodd" d="M70.4295 8.02563C71.6072 8.79926 72.5792 9.83947 73.2638 11.059C73.9483 12.2785 74.3256 13.6417 74.3639 15.0343V15.5195C74.3243 16.8972 73.9531 18.2461 73.2808 19.4554C72.6085 20.6647 71.6542 21.6999 70.4964 22.4761C70.4425 22.2982 70.4162 22.1134 70.4183 21.9279V15.4893C70.4183 15.4181 70.4183 15.3495 70.4183 15.2783C70.4183 15.207 70.4183 15.1357 70.4183 15.0645L70.4295 8.02563Z" fill="#702C63"/>
<path fill-rule="evenodd" clip-rule="evenodd" d="M80.7643 18.1426C81.1538 18.1431 81.5344 18.2572 81.858 18.4705C82.1816 18.6838 82.4337 18.9866 82.5823 19.3408C82.731 19.6949 82.7696 20.0845 82.6933 20.4602C82.617 20.8359 82.4291 21.181 82.1535 21.4517C81.8779 21.7224 81.5269 21.9067 81.1448 21.9813C80.7627 22.0558 80.3668 22.0173 80.007 21.8705C79.6472 21.7238 79.3397 21.4754 79.1233 21.1568C78.907 20.8382 78.7915 20.4636 78.7915 20.0805C78.7915 19.8257 78.8426 19.5735 78.9417 19.3382C79.0409 19.1029 79.1863 18.8892 79.3695 18.7092C79.5527 18.5292 79.7702 18.3865 80.0095 18.2893C80.2489 18.1921 80.5054 18.1422 80.7643 18.1426ZM90.5167 12.4139C90.1264 12.4145 89.7448 12.3011 89.42 12.0882C89.0952 11.8753 88.8419 11.5724 88.6922 11.2179C88.5424 10.8633 88.5029 10.473 88.5787 10.0964C88.6546 9.71979 88.8422 9.37375 89.118 9.10208C89.3938 8.8304 89.7453 8.64531 90.1281 8.57021C90.5108 8.4951 90.9076 8.53337 91.2683 8.68017C91.6289 8.82697 91.9372 9.0757 92.1541 9.39489C92.371 9.71409 92.4867 10.0894 92.4867 10.4733C92.4871 10.7278 92.4365 10.9799 92.3379 11.2151C92.2392 11.4504 92.0944 11.6642 91.9117 11.8444C91.729 12.0246 91.5121 12.1677 91.2732 12.2654C91.0343 12.3631 90.7782 12.4136 90.5195 12.4139H90.5167Z" fill="#702C63"/>
<path fill-rule="evenodd" clip-rule="evenodd" d="M92.0214 9.2179C93.6746 10.8555 94.6005 13.0709 94.5964 15.3788C94.5923 17.6866 93.6585 19.8988 91.9995 21.5308C90.3405 23.1627 88.0917 24.0813 85.7456 24.0853C83.3994 24.0893 81.1473 23.1785 79.4825 21.5523C79.8646 21.874 80.3573 22.0398 80.8596 22.0156C81.3619 21.9915 81.8358 21.7794 82.1842 21.4226C82.5326 21.0659 82.7291 20.5916 82.7335 20.0969C82.7378 19.6022 82.5497 19.1246 82.2077 18.762C83.1461 19.5967 84.3747 20.0447 85.6394 20.0135C86.9042 19.9822 88.1084 19.4741 89.003 18.594C89.8976 17.714 90.4142 16.5295 90.446 15.2853C90.4777 14.0412 90.0223 12.8326 89.1737 11.9095C89.5443 12.2379 90.0275 12.416 90.5262 12.408C91.0249 12.4 91.502 12.2064 91.8615 11.8664C92.221 11.5263 92.4362 11.0649 92.4638 10.575C92.4914 10.0852 92.3293 9.6032 92.0103 9.22612L92.0214 9.2179Z" fill="#00AECB"/>
<path fill-rule="evenodd" clip-rule="evenodd" d="M105.151 6.55362C107.447 6.55051 109.655 7.42636 111.306 8.99583C111.514 9.16636 111.685 9.37727 111.807 9.61541C111.928 9.85354 111.999 10.1138 112.014 10.3799C112.029 10.6461 111.988 10.9124 111.894 11.1623C111.799 11.4123 111.654 11.6404 111.466 11.8325C111.278 12.0247 111.052 12.1767 110.802 12.2791C110.552 12.3815 110.283 12.4321 110.012 12.4277C109.741 12.4234 109.474 12.3642 109.227 12.2538C108.981 12.1434 108.76 11.9842 108.578 11.7861C107.64 10.9514 106.411 10.5034 105.147 10.5346C103.882 10.5659 102.678 11.0741 101.783 11.9541C100.888 12.8341 100.372 14.0187 100.34 15.2628C100.308 16.5069 100.764 17.7155 101.612 18.6386C101.243 18.3027 100.758 18.1183 100.255 18.1231C99.7521 18.128 99.2702 18.3218 98.908 18.6648C98.5458 19.0078 98.3306 19.4741 98.3065 19.9681C98.2824 20.4621 98.4513 20.9465 98.7784 21.322C97.5689 20.0905 96.7546 18.536 96.4371 16.8524C96.1196 15.1687 96.313 13.4304 96.9931 11.8541C97.6733 10.2778 98.81 8.93333 100.262 7.98832C101.713 7.04331 103.416 6.53957 105.157 6.53992L105.151 6.55362Z" fill="#FF256C"/>
<path fill-rule="evenodd" clip-rule="evenodd" d="M100.272 18.1426C100.662 18.1426 101.043 18.2562 101.366 18.4692C101.69 18.6821 101.943 18.9848 102.092 19.3389C102.241 19.693 102.28 20.0826 102.204 20.4585C102.128 20.8344 101.941 21.1797 101.665 21.4507C101.389 21.7217 101.038 21.9063 100.656 21.9811C100.274 22.0559 99.8781 22.0175 99.5181 21.8708C99.1581 21.7241 98.8505 21.4758 98.634 21.1571C98.4175 20.8384 98.302 20.4637 98.302 20.0804C98.302 19.5665 98.5096 19.0736 98.879 18.7102C99.2484 18.3467 99.7495 18.1426 100.272 18.1426Z" fill="#702C63"/>
<path fill-rule="evenodd" clip-rule="evenodd" d="M105.151 24C107.447 24.0031 109.655 23.1273 111.306 21.5578C111.507 21.3853 111.67 21.1744 111.786 20.938C111.901 20.7016 111.967 20.4446 111.979 20.1825C111.99 19.9204 111.948 19.6587 111.853 19.4133C111.759 19.1679 111.615 18.9439 111.43 18.7548C111.246 18.5657 111.024 18.4155 110.778 18.3133C110.532 18.2111 110.268 18.159 110.002 18.1602C109.735 18.1614 109.471 18.2158 109.227 18.3202C108.982 18.4246 108.761 18.5768 108.578 18.7675C107.658 19.6413 106.429 20.1295 105.15 20.1295C103.87 20.1295 102.641 19.6413 101.721 18.7675C102.063 19.1302 102.251 19.6077 102.247 20.1024C102.242 20.5971 102.046 21.0714 101.697 21.4282C101.349 21.7849 100.875 21.9971 100.373 22.0212C99.8705 22.0453 99.3778 21.8795 98.9958 21.5578C100.647 23.1273 102.855 24.0031 105.151 24Z" fill="#00AECB"/>
</g>
<defs>
<clipPath id="clip0_91_1036">
<rect width="112" height="24" fill="white"/>
</clipPath>
</defs>
</svg>
