<svg width="30" height="30" viewBox="0 0 30 30" fill="none" xmlns="http://www.w3.org/2000/svg">
<path fill-rule="evenodd" clip-rule="evenodd" d="M14.2531 6.60564C15.9155 5.49486 17.87 4.90198 19.8693 4.90198C22.5492 4.90567 25.1183 5.9719 27.0133 7.86689C28.9083 9.76188 29.9746 12.331 29.9782 15.0109C29.9782 17.0103 29.3854 18.9647 28.2746 20.6271C27.1638 22.2895 25.585 23.5852 23.7378 24.3503C21.8907 25.1155 19.8581 25.3157 17.8972 24.9256C15.9362 24.5355 14.135 23.5728 12.7212 22.159C11.3075 20.7452 10.3447 18.944 9.95462 16.9831C9.56457 15.0221 9.76476 12.9896 10.5299 11.1424C11.295 9.29522 12.5907 7.71642 14.2531 6.60564ZM22.3094 18.4958C22.5865 18.4958 22.8523 18.3858 23.0484 18.19C23.2499 17.9995 23.3675 17.7368 23.3753 17.4597C23.3832 17.1825 23.2806 16.9136 23.0902 16.712L20.9569 14.5787V10.8279C20.9569 10.5506 20.8467 10.2846 20.6506 10.0884C20.4545 9.89233 20.1885 9.78215 19.9111 9.78215C19.6338 9.78215 19.3678 9.89233 19.1717 10.0884C18.9756 10.2846 18.8654 10.5506 18.8654 10.8279V15.0109C18.8656 15.2882 18.976 15.554 19.1721 15.7499L21.5704 18.19C21.7665 18.3858 22.0323 18.4958 22.3094 18.4958Z" fill="#2180A7"/>
<path d="M5.22876 10.4793H8.7146C8.99195 10.4793 9.25794 10.3691 9.45405 10.173C9.65017 9.97691 9.76035 9.71092 9.76035 9.43357C9.76035 9.15622 9.65017 8.89023 9.45405 8.69411C9.25794 8.49799 8.99195 8.38782 8.7146 8.38782H5.22876C4.95141 8.38782 4.68542 8.49799 4.4893 8.69411C4.29318 8.89023 4.18301 9.15622 4.18301 9.43357C4.18301 9.71092 4.29318 9.97691 4.4893 10.173C4.68542 10.3691 4.95141 10.4793 5.22876 10.4793Z" fill="#B3D8E5"/>
<path d="M5.22876 21.634H8.7146C8.99195 21.634 9.25794 21.5238 9.45405 21.3277C9.65017 21.1316 9.76035 20.8656 9.76035 20.5883C9.76035 20.3109 9.65017 20.0449 9.45405 19.8488C9.25794 19.6527 8.99195 19.5425 8.7146 19.5425H5.22876C4.95141 19.5425 4.68542 19.6527 4.4893 19.8488C4.29318 20.0449 4.18301 20.3109 4.18301 20.5883C4.18301 20.8656 4.29318 21.1316 4.4893 21.3277C4.68542 21.5238 4.95141 21.634 5.22876 21.634Z" fill="#B3D8E5"/>
<path d="M7.32026 16.0566H1.04575C0.768401 16.0566 0.50241 15.9465 0.306294 15.7503C0.110177 15.5542 0 15.2882 0 15.0109C0 14.7335 0.110177 14.4675 0.306294 14.2714C0.50241 14.0753 0.768401 13.9651 1.04575 13.9651H7.32026C7.59761 13.9651 7.8636 14.0753 8.05972 14.2714C8.25584 14.4675 8.36601 14.7335 8.36601 15.0109C8.36601 15.2882 8.25584 15.5542 8.05972 15.7503C7.8636 15.9465 7.59761 16.0566 7.32026 16.0566Z" fill="#B3D8E5"/>
</svg>
