<svg width="30" height="30" viewBox="0 0 30 30" fill="none" xmlns="http://www.w3.org/2000/svg">
<path d="M19.3026 11.1087L20.0991 11.9111C20.4413 12.2533 20.4413 12.802 20.0991 13.1442L13.5856 19.6517C13.2434 19.9939 12.6947 19.9939 12.3525 19.6517L9.52056 16.8198C9.17837 16.4776 9.17837 15.9289 9.52056 15.5867L10.3229 14.7902C10.6651 14.448 11.2138 14.448 11.556 14.7902L12.972 16.2062L18.0754 11.1087C18.4117 10.7665 18.9604 10.7665 19.3026 11.1087Z" fill="#B3D8E5"/>
<path d="M6.94865 3.64533C7.57542 3.04119 7.57542 2.05875 6.94865 1.45461C6.32774 0.856114 5.32608 0.850467 4.69345 1.43767L0.493508 5.33354L0.470077 5.35613C-0.156692 5.96027 -0.156692 6.94271 0.470077 7.54685C1.09099 8.14535 2.09265 8.151 2.72528 7.56379L6.92522 3.66792L6.94865 3.64533Z" fill="#B3D8E5"/>
<path d="M23.0572 3.64533C22.4304 3.04119 22.4304 2.05875 23.0572 1.45461C23.6723 0.856114 24.6739 0.850468 25.3065 1.42638L29.5065 5.32225L29.5299 5.34484C30.1567 5.94898 30.1567 6.93142 29.5299 7.53556C28.909 8.13406 27.9074 8.14535 27.2747 7.55814L23.0748 3.66227L23.0572 3.64533Z" fill="#B3D8E5"/>
<path fill-rule="evenodd" clip-rule="evenodd" d="M24.1796 25.2169C27.9337 21.4763 29.0389 15.8273 26.9688 10.9452C25.6532 7.81921 23.168 5.33131 20.0395 4.01419C16.8117 2.66194 13.1687 2.66194 9.94092 4.01419C8.40301 4.66983 6.99961 5.61814 5.81843 6.8065C4.64308 8.00068 3.69577 9.40561 3.03501 10.9452C1.655 14.1882 1.655 17.8527 3.03501 21.0958C3.69577 22.6295 4.63722 24.0286 5.81843 25.2169C7.00546 26.3935 8.40301 27.336 9.94092 27.9858C13.1687 29.3381 16.8117 29.3381 20.0395 27.9858C21.5833 27.3302 22.9867 26.3935 24.1796 25.2169ZM21.9108 9.07193C23.817 10.9803 24.7468 13.2458 24.7468 15.9971C24.7468 18.7484 23.817 21.0197 21.9108 22.9281C20.0045 24.8364 17.7415 25.7672 14.9932 25.7672C12.2448 25.7672 9.98769 24.8306 8.07557 22.9222C6.16343 21.0138 5.23953 18.7425 5.23953 15.9971C5.23953 13.2516 6.16928 10.9803 8.07557 9.07193C9.98184 7.16356 12.2448 6.2328 14.9932 6.2328C17.7415 6.2328 20.0045 7.16356 21.9108 9.07193Z" fill="#2180A7"/>
</svg>
