<svg width="30" height="30" viewBox="0 0 30 30" fill="none" xmlns="http://www.w3.org/2000/svg">
<g clip-path="url(#clip0_131_2837)">
<path d="M24.5209 12.8264C26.1111 13.1355 27.7012 13.5168 29.2714 13.9701C29.8114 14.135 30.1115 14.7017 29.9615 15.2478C29.8414 15.7011 29.4414 15.9999 29.0014 15.9999C28.9114 15.9999 28.8214 15.9793 28.7314 15.9587C19.7576 13.3107 10.2425 13.3107 1.26871 15.9587C0.738657 16.103 0.188604 15.7939 0.0385901 15.2478C-0.111424 14.7017 0.188605 14.135 0.718655 13.9701C2.29881 13.5168 3.88896 13.1355 5.47911 12.8264L7.01926 4.83079C7.07927 4.53198 7.25928 4.27439 7.51931 4.13014C7.64448 4.05683 7.78395 4.01323 7.92756 4.00253C8.07117 3.99184 8.21529 4.01431 8.34939 4.06832C12.6351 5.73752 17.3649 5.73752 21.6507 4.06832C21.787 4.01707 21.9323 3.99608 22.0771 4.00673C22.2219 4.01739 22.3628 4.05944 22.4907 4.13014C22.7408 4.27439 22.9208 4.53198 22.9808 4.83079L24.5209 12.8264Z" fill="#2180A7"/>
<path d="M25.562 17.4659C26.4803 18.402 26.9973 19.6709 27 20.9948C27 23.7559 24.7988 25.9999 22.1006 25.9999C19.4024 25.9999 17.2012 23.7559 17.2012 20.9948C17.2012 20.9273 17.2098 20.8642 17.2186 20.7998C17.2233 20.7655 17.2281 20.7308 17.2316 20.6949H12.7684C12.7719 20.7308 12.7767 20.7655 12.7814 20.7998C12.7902 20.8642 12.7988 20.9273 12.7988 20.9948C12.7988 23.7559 10.5976 25.9999 7.89941 25.9999C5.20118 25.9999 3 23.7559 3 20.9948C3.00268 19.6709 3.51973 18.402 4.43796 17.4659C5.3562 16.5298 6.60083 16.0027 7.89941 15.9999C9.75571 15.9999 11.3483 17.0651 12.1801 18.6266H17.8199C18.6517 17.0651 20.2443 15.9999 22.1006 15.9999C23.3992 16.0027 24.6438 16.5298 25.562 17.4659Z" fill="#B3D8E5"/>
</g>
<defs>
<clipPath id="clip0_131_2837">
<rect width="30" height="30" fill="white"/>
</clipPath>
</defs>
</svg>
