<svg width="30" height="30" viewBox="0 0 30 30" fill="none" xmlns="http://www.w3.org/2000/svg">
<g clip-path="url(#clip0_131_2909)">
<path d="M29.4118 6.4812H4.6912C4.36632 6.4812 4.10297 6.74455 4.10297 7.06944V9.04826H26.4853C27.1351 9.04826 27.6618 9.57497 27.6618 10.2247V19.1871H29.4118C29.7367 19.1871 30 18.9237 30 18.5988V7.06944C30 6.74455 29.7367 6.4812 29.4118 6.4812Z" fill="#B3D8E5"/>
<path d="M14.97 17.1659C14.97 18.2806 14.0635 19.1871 12.9482 19.1871C11.8335 19.1871 10.9271 18.2806 10.9271 17.1659C10.9271 16.0512 11.8335 15.1442 12.9482 15.1442C14.0635 15.1442 14.97 16.0512 14.97 17.1659Z" fill="#2180A7"/>
<path fill-rule="evenodd" clip-rule="evenodd" d="M0.588235 10.813H25.3088C25.6335 10.813 25.8971 11.0765 25.8971 11.4012V22.9306C25.8971 23.2553 25.6335 23.5189 25.3088 23.5189H0.588235C0.263529 23.5189 0 23.2553 0 22.9306V11.4012C0 11.0765 0.263529 10.813 0.588235 10.813ZM3.78529 18.7206C4.27118 18.7206 4.66765 18.3265 4.66765 17.8383V16.4936C4.66765 16.0018 4.26824 15.6112 3.78529 15.6112C3.29882 15.6112 2.90294 16.0048 2.90294 16.4936V17.8383C2.90294 18.3248 3.29706 18.7206 3.78529 18.7206ZM9.16235 17.1659C9.16235 19.2553 10.8624 20.9518 12.9482 20.9518C15.0412 20.9518 16.7347 19.2495 16.7347 17.1659C16.7347 15.0777 15.0365 13.3795 12.9482 13.3795C10.8606 13.3795 9.16235 15.0777 9.16235 17.1659ZM22.1118 18.7206C22.5988 18.7206 22.9941 18.3253 22.9941 17.8383V16.4936C22.9941 16.0059 22.5988 15.6112 22.1118 15.6112C21.6241 15.6112 21.2294 16.0059 21.2294 16.4936V17.8383C21.2294 18.3253 21.6241 18.7206 22.1118 18.7206Z" fill="#2180A7"/>
</g>
<defs>
<clipPath id="clip0_131_2909">
<rect width="30" height="30" fill="white"/>
</clipPath>
</defs>
</svg>
