<svg width="30" height="30" viewBox="0 0 30 30" fill="none" xmlns="http://www.w3.org/2000/svg">
<path fill-rule="evenodd" clip-rule="evenodd" d="M5.99996 13.0227H2.72723C1.52224 13.0227 0.54541 13.9995 0.54541 15.2045V26.1136C0.54541 27.3186 1.52224 28.2954 2.72723 28.2954H5.99996C6.80754 28.2954 7.51265 27.8567 7.88989 27.2045H10.2294L16.2796 28.7176C16.7142 28.8262 17.1604 28.8812 17.6083 28.8812C18.3727 28.8823 19.1287 28.7224 19.8272 28.4119C20.5257 28.1014 21.1509 27.6473 21.6621 27.0791L28.5414 19.4351C29.1542 18.7544 29.4917 17.8699 29.488 16.9541C29.4844 16.0382 29.1399 15.1565 28.5217 14.4807C27.9035 13.8049 27.0559 13.3834 26.144 13.2984C25.232 13.2134 24.3211 13.471 23.5887 14.0209L18.025 18.1925L14.425 15.3136C13.4581 14.5394 12.2569 14.1163 11.0181 14.1136H7.88988C7.51263 13.4615 6.80753 13.0227 5.99996 13.0227ZM10.3636 25.0227H8.18177V16.2954H11.0181C11.7614 16.296 12.4825 16.5487 13.0636 17.0121L16.7716 19.9824L16.6472 20.4791C16.6037 20.6537 16.5176 20.8148 16.3966 20.948C16.2757 21.0813 16.1237 21.1825 15.9541 21.2428C15.7846 21.3031 15.6027 21.3204 15.4248 21.2934C15.2469 21.2664 15.0785 21.1957 14.9345 21.0878L13.2 19.7863C12.9685 19.6127 12.6776 19.5382 12.3911 19.5791C12.1047 19.62 11.8463 19.7731 11.6727 20.0045C11.4991 20.236 11.4246 20.5269 11.4655 20.8134C11.4857 20.9552 11.5337 21.0916 11.6067 21.2149C11.6797 21.3382 11.7763 21.4458 11.8909 21.5318L13.6232 22.8333C14.1894 23.2587 14.8786 23.4884 15.5869 23.4878C16.3171 23.4874 17.0251 23.2433 17.6008 22.7941C18.1765 22.3449 18.5857 21.7164 18.7636 21.0082L18.964 20.2089L24.8934 15.7641C25.1923 15.5388 25.5645 15.433 25.9372 15.4674C26.3099 15.5018 26.6564 15.6739 26.909 15.9501C27.1617 16.2263 27.3022 16.5868 27.3033 16.9611C27.3044 17.3354 27.1659 17.6967 26.9149 17.9743L20.0356 25.6183C19.6381 26.06 19.1277 26.3849 18.5592 26.5579C17.9908 26.7309 17.3859 26.7455 16.8098 26.6001L10.6287 25.0554C10.542 25.0337 10.453 25.0227 10.3636 25.0227Z" fill="#2180A7"/>
<path fill-rule="evenodd" clip-rule="evenodd" d="M12.1817 2.12581C13.2581 1.40659 14.5236 1.02271 15.8182 1.02271C17.5536 1.02444 19.2174 1.7146 20.4446 2.94174C21.6717 4.16887 22.3619 5.83273 22.3636 7.56816C22.3636 8.86273 21.9797 10.1282 21.2605 11.2046C20.5413 12.281 19.519 13.12 18.323 13.6154C17.127 14.1108 15.8109 14.2404 14.5412 13.9878C13.2715 13.7353 12.1052 13.1119 11.1898 12.1965C10.2744 11.2811 9.65103 10.1148 9.39848 8.84511C9.14592 7.57542 9.27554 6.25935 9.77095 5.06332C10.2664 3.8673 11.1053 2.84504 12.1817 2.12581ZM16.9091 8.65907H18C18.2893 8.65907 18.5668 8.54413 18.7714 8.33955C18.976 8.13496 19.0909 7.85749 19.0909 7.56816C19.0909 7.27883 18.976 7.00136 18.7714 6.79677C18.5668 6.59219 18.2893 6.47725 18 6.47725H16.9091V5.38634C16.9091 5.09701 16.7941 4.81954 16.5896 4.61495C16.385 4.41037 16.1075 4.29543 15.8182 4.29543C15.5288 4.29543 15.2514 4.41037 15.0468 4.61495C14.8422 4.81954 14.7273 5.09701 14.7273 5.38634V6.47725H13.6363C13.347 6.47725 13.0695 6.59219 12.865 6.79677C12.6604 7.00136 12.5454 7.27883 12.5454 7.56816C12.5454 7.85749 12.6604 8.13496 12.865 8.33955C13.0695 8.54413 13.347 8.65907 13.6363 8.65907H14.7273V9.74998C14.7273 10.0393 14.8422 10.3168 15.0468 10.5214C15.2514 10.726 15.5288 10.8409 15.8182 10.8409C16.1075 10.8409 16.385 10.726 16.5896 10.5214C16.7941 10.3168 16.9091 10.0393 16.9091 9.74998V8.65907Z" fill="#B3D8E5"/>
</svg>
