<svg width="30" height="30" viewBox="0 0 30 30" fill="none" xmlns="http://www.w3.org/2000/svg">
<g clip-path="url(#clip0_131_2990)">
<path d="M28.7407 8.83811L25.678 7.00565L24.9879 4.1492C24.6815 2.88235 23.5082 2.03778 22.2216 2.13903L18.7171 2.41026L16.7095 0.632756C15.7208 -0.210935 14.2822 -0.210935 13.2901 0.631877L11.2825 2.4102L7.77797 2.13897C6.50596 2.04973 5.31721 2.88311 5.0434 4.04526L4.02973 7.19608L1.2593 8.83717C0.149537 9.51867 -0.295072 10.8868 0.201861 12.0902L1.39747 14.9878L0.20274 17.8846C-0.295072 19.0889 0.150358 20.4561 1.2593 21.1368L4.31895 22.9564L5.01159 25.8257C5.31628 27.0917 6.48446 27.932 7.77792 27.8359L11.2446 27.5681L13.2899 29.3665C13.7852 29.7887 14.3921 29.9999 14.9998 29.9999C15.6066 29.9999 16.2143 29.7887 16.7095 29.3664L18.7549 27.5681L22.2216 27.8358C23.5314 27.9397 24.6832 27.0925 24.9879 25.8257L25.678 22.9692L28.7407 21.1368C29.8488 20.4561 30.2934 19.0889 29.7973 17.8846L28.6017 14.9879L29.7981 12.0894C30.2943 10.8869 29.8497 9.51873 28.7407 8.83811ZM14.9998 24.6679C9.66885 24.6679 5.3318 20.3308 5.3318 14.9999C5.3318 9.66897 9.66885 5.33192 14.9998 5.33192C20.3307 5.33192 24.6677 9.66897 24.6677 14.9999C24.6677 20.3308 20.3307 24.6679 14.9998 24.6679Z" fill="#B3D8E5"/>
<path d="M15 7.08984C10.6381 7.08984 7.08984 10.6381 7.08984 15C7.08984 19.3619 10.6381 22.9102 15 22.9102C19.3619 22.9102 22.9102 19.3619 22.9102 15C22.9102 10.6381 19.3619 7.08984 15 7.08984ZM20.0159 12.9847L14.7425 18.2581C14.5708 18.4298 14.3459 18.5156 14.1211 18.5156C13.8963 18.5156 13.6713 18.4298 13.4997 18.2581L9.98408 14.7425C9.64078 14.3992 9.64078 13.8429 9.98408 13.4996C10.3274 13.1563 10.8836 13.1563 11.2269 13.4996L14.1211 16.3939L18.7731 11.7418C19.1164 11.3985 19.6727 11.3985 20.016 11.7418C20.3593 12.0851 20.3593 12.6414 20.0159 12.9847Z" fill="#2180A7"/>
</g>
<defs>
<clipPath id="clip0_131_2990">
<rect width="30" height="30" fill="white"/>
</clipPath>
</defs>
</svg>
