<svg width="14" height="10" viewBox="0 0 14 10" fill="none" xmlns="http://www.w3.org/2000/svg">
<path d="M12.7833 1.50627C13.4082 1.37092 14 1.84613 14 2.4855V4.6031C14 5.08172 13.6611 5.49526 13.19 5.57988C13.0635 5.60261 12.9575 5.6206 12.9061 5.62699C12.7199 5.65016 12.1345 5.8369 11.7103 5.43403C11.0561 4.81454 8.7317 2.53067 8.7317 2.53067C8.7317 2.53067 8.33093 2.14212 7.68743 2.47792C7.09672 2.78553 6.22108 3.23634 5.85533 3.41189C5.16392 3.77549 4.59087 3.19861 4.59087 2.75918C4.59087 2.41833 4.80614 2.187 5.11387 2.01686C5.94784 1.51735 7.70562 0.542519 8.43773 0.158185C8.88274 -0.0756638 9.20338 -0.0957025 9.81434 0.412826C10.5668 1.03807 11.2364 1.608 11.2364 1.608C11.2364 1.608 11.4548 1.78809 11.8031 1.71556C12.0972 1.65414 12.4486 1.57876 12.7833 1.50627ZM4.74832 8.3348C4.86089 8.04907 4.82326 7.72948 4.60745 7.51023C4.41353 7.31411 4.13041 7.26243 3.86045 7.32355C3.93596 7.059 3.89426 6.77743 3.6993 6.57871C3.50479 6.3831 3.2222 6.33038 2.95227 6.39206C3.02721 6.1279 2.98563 5.84636 2.79055 5.64823C2.48509 5.33867 1.95672 5.35195 1.60962 5.67885C1.26435 6.00619 1.04317 6.59926 1.35132 6.94834C1.65897 7.29567 2.01245 7.08434 2.28193 7.02367C2.20696 7.28782 1.98234 7.53353 2.25897 7.8793C2.53534 8.22523 2.92007 8.01535 3.18983 7.95524C3.11461 8.21839 2.89979 8.48877 3.16579 8.80936C3.4342 9.13093 3.87381 8.9596 4.16417 8.87048C4.05211 9.15513 3.81226 9.46196 4.12041 9.80579C4.42808 10.1521 5.13909 9.99189 5.48639 9.66449C5.83276 9.33715 5.86601 8.81835 5.56136 8.50781C5.35103 8.29475 5.03749 8.24518 4.74832 8.3348ZM11.0854 6.1564C8.57482 3.67582 9.7557 4.84306 8.4046 3.50527C8.4046 3.50527 7.99854 3.10587 7.46337 3.33788C7.08768 3.50053 6.604 3.72221 6.24006 3.89145C5.84014 4.09865 5.55232 4.16278 5.41719 4.16189C4.64406 4.15689 4.0168 3.54292 4.0168 2.77981C4.0168 2.28476 4.2828 1.85376 4.67954 1.60911C5.23742 1.22768 6.52155 0.552845 6.52155 0.552845C6.52155 0.552845 6.13035 0.0630715 5.27338 0.0630715C4.41667 0.0630715 2.62675 1.22163 2.62675 1.22163C2.62675 1.22163 2.11897 1.54297 1.39514 1.25353L1.32534 1.22951C0.676082 1.00613 0 1.4885 0 2.17511V4.81073C0 5.25712 0.298781 5.64284 0.714128 5.8064C0.728237 5.81196 0.742311 5.81757 0.756322 5.82322C0.837166 5.59543 0.967612 5.38508 1.14856 5.21135C1.74241 4.6525 2.72671 4.64669 3.267 5.19636C3.42976 5.36345 3.54335 5.56277 3.60131 5.78312C3.81901 5.84951 4.01621 5.96712 4.17467 6.12843C4.33567 6.29175 4.45105 6.49353 4.50952 6.71407C4.72696 6.78052 4.92388 6.89858 5.08288 7.06C5.26194 7.24244 5.38123 7.46281 5.43693 7.70157C5.66387 7.7668 5.86991 7.88882 6.0351 8.05582C6.3598 8.38534 6.47505 8.83241 6.40522 9.26366L6.40737 9.26464C6.41268 9.27151 6.60855 9.48724 6.73069 9.60892C6.97006 9.84565 7.36092 9.84565 7.60102 9.60892C7.83954 9.37228 7.84058 8.98686 7.60102 8.74902C7.59243 8.74057 6.73744 7.85697 6.80625 7.78845C6.87455 7.72041 7.96385 8.84029 7.98414 8.86077C8.22319 9.09702 8.6138 9.09702 8.85393 8.86077C9.09349 8.62413 9.09299 8.23871 8.85393 8.00143C8.84218 7.99037 8.79314 7.94396 8.77495 7.92549C8.77495 7.92549 7.69494 6.97491 7.77714 6.89369C7.86036 6.81198 9.20188 8.0489 9.20405 8.0489C9.4452 8.26346 9.81665 8.26187 10.0486 8.03255C10.2744 7.80955 10.2792 7.45681 10.0791 7.21911C10.0749 7.20647 9.05672 6.1552 9.13618 6.0761C9.21679 5.99598 10.2242 7.0209 10.2264 7.02302C10.4649 7.25922 10.856 7.25922 11.0961 7.02302C11.3352 6.7868 11.3352 6.40091 11.0961 6.16259C11.0929 6.16058 11.0886 6.15846 11.0854 6.1564Z" fill="#2180A7"/>
</svg>
