<svg width="14" height="12" viewBox="0 0 14 12" fill="none" xmlns="http://www.w3.org/2000/svg">
<path d="M12.9715 4.00255H13.5333C13.6571 4.00255 13.7758 4.05508 13.8633 4.14859C13.9508 4.24209 14 4.36891 14 4.50115C14 4.63338 13.9508 4.7602 13.8633 4.8537C13.7758 4.94721 13.6571 4.99974 13.5333 4.99974H8.86667C8.79431 5.00027 8.72303 5.01853 8.65831 5.0531C8.59358 5.08768 8.53715 5.13765 8.49333 5.19918L7.546 6.55037L6.482 4.27678C6.44581 4.19853 6.39086 4.13192 6.32275 4.08373C6.25464 4.03554 6.1758 4.00748 6.09424 4.00241C6.01268 3.99735 5.93133 4.01545 5.85845 4.05489C5.78557 4.09432 5.72377 4.15368 5.67933 4.22692L4.88133 5.49833H1.57733C1.26054 5.01221 1.06293 4.44895 1.0026 3.86011C0.942273 3.27128 1.02114 2.67568 1.232 2.12784C1.43923 1.54693 1.79576 1.04034 2.26056 0.666349C2.72536 0.292358 3.27954 0.066168 3.85933 0.0138045C4.44387 -0.0378553 5.03166 0.0559145 5.57658 0.287756C6.1215 0.519597 6.60871 0.883201 7 1.35003C7.39155 0.883567 7.87882 0.520215 8.42366 0.288404C8.96851 0.0565926 9.55617 -0.0373912 10.1407 0.0138045C10.7185 0.0666264 11.2707 0.291904 11.7345 0.663936C12.1982 1.03597 12.5547 1.53977 12.7633 2.11787C12.9873 2.71542 13.0592 3.36571 12.9715 4.00255Z" fill="#2180A7"/>
<path d="M7.67503 7.93794C7.73975 7.90337 7.79619 7.8534 7.84 7.79187L9.1 5.99693H12.054L7.322 11.8255C7.2789 11.8798 7.2253 11.9236 7.16489 11.9537C7.10447 11.9838 7.03867 11.9996 6.972 12C6.90475 11.999 6.83843 11.983 6.77733 11.953C6.71624 11.9229 6.66173 11.8795 6.61733 11.8255L3.14627 7.49271H0.466667C0.342899 7.49271 0.2242 7.44018 0.136683 7.34668C0.0491665 7.25318 0 7.12636 0 6.99412C0 6.86189 0.0491665 6.73507 0.136683 6.64156C0.2242 6.54806 0.342899 6.49553 0.466667 6.49553H5.13333C5.21024 6.49532 5.28589 6.47472 5.35349 6.43555C5.4211 6.39639 5.47854 6.3399 5.52067 6.27116L6.01067 5.49335L7.05133 7.71708C7.08999 7.79942 7.14929 7.86866 7.22263 7.91708C7.29597 7.9655 7.38045 7.9912 7.46667 7.99131C7.53903 7.99077 7.61031 7.97252 7.67503 7.93794Z" fill="#2180A7"/>
</svg>
