<svg width="12" height="12" viewBox="0 0 12 12" fill="none" xmlns="http://www.w3.org/2000/svg">
<path fill-rule="evenodd" clip-rule="evenodd" d="M4.8144 0.369182C5.16363 0.128681 5.57688 0 6 0C6.42312 0 6.83637 0.128681 7.1856 0.369182L11.0856 3.0561C11.3674 3.25015 11.5979 3.51045 11.7573 3.81444C11.9166 4.11843 11.9999 4.45694 12 4.80066V9.88575C12 10.4465 11.7788 10.9843 11.3849 11.3808C10.9911 11.7773 10.457 12 9.9 12H2.1C1.54305 12 1.0089 11.7773 0.615076 11.3808C0.221249 10.9843 0 10.4465 0 9.88575V4.80066C8.24066e-05 4.45694 0.0833991 4.11843 0.242733 3.81444C0.402067 3.51045 0.632613 3.25015 0.9144 3.0561L4.8144 0.369182ZM4.5 9.28167C4.42044 9.28167 4.34413 9.31349 4.28787 9.37014C4.23161 9.42678 4.2 9.5036 4.2 9.58371C4.2 9.66381 4.23161 9.74064 4.28787 9.79728C4.34413 9.85392 4.42044 9.88575 4.5 9.88575H7.5C7.57957 9.88575 7.65587 9.85392 7.71213 9.79728C7.76839 9.74064 7.8 9.66381 7.8 9.58371C7.8 9.5036 7.76839 9.42678 7.71213 9.37014C7.65587 9.31349 7.57957 9.28167 7.5 9.28167H4.5Z" fill="#102E46"/>
</svg>
