<svg width="40" height="40" viewBox="0 0 40 40" fill="none" xmlns="http://www.w3.org/2000/svg">
<path fill-rule="evenodd" clip-rule="evenodd" d="M18.9837 1C30.4014 1 40 7.76144 40 19.2076C40 30.6538 30.5261 38.6162 19.1084 38.6162C7.69081 38.6162 0 30.6024 0 19.1562C0 7.71001 7.56598 1.00014 18.9837 1.00014V1Z" fill="url(#paint0_linear_411_4569)"/>
<path d="M4.59508 32.4405C4.5863 31.6337 4.57921 30.8429 4.57496 30.0803C4.5649 28.268 4.57085 26.6237 4.60911 25.3171C4.64822 23.9816 4.7202 22.9892 4.84008 22.2021C4.96591 21.3772 5.14459 20.7564 5.39199 20.1957C5.64181 19.63 5.96261 19.1279 6.35143 18.6764C6.73458 18.2312 7.18235 17.8393 7.6919 17.4879C8.23163 17.1156 8.84263 16.7864 9.52647 16.5431C10.1334 16.3275 10.7982 16.1779 11.5226 16.125C11.8524 16.1009 12.1951 16.097 12.5435 16.1144C12.6411 15.5412 12.7585 15.0575 12.9004 14.6355C13.1881 13.7802 13.5722 13.1845 14.0893 12.6302C14.5865 12.0971 15.204 11.6082 15.872 11.2006C16.5526 10.7854 17.2911 10.449 18.0142 10.231C18.7357 10.0135 19.4475 9.91234 20.1479 9.90794C20.8465 9.90354 21.5239 9.99516 22.1808 10.1624L22.2041 10.1689C22.8525 10.3358 23.4871 10.5769 24.0881 10.882C24.6981 11.1915 25.2724 11.5664 25.7906 11.9956C26.3235 12.4373 26.8006 12.9392 27.2057 13.4993C27.5933 14.0357 27.9156 14.6282 28.1579 15.2763C28.1941 15.3729 28.2282 15.4706 28.2608 15.5695C28.4626 15.5536 28.6641 15.5462 28.8645 15.5473C29.549 15.5513 30.2154 15.6547 30.8498 15.8517C31.4913 16.051 32.1003 16.3441 32.6632 16.7255C33.2315 17.1106 33.759 17.5887 34.201 18.2112C34.6395 18.829 34.9891 19.5847 35.2033 20.5267C35.5958 22.2516 35.5238 24.5866 35.4514 26.9348L35.4419 27.2424C35.4048 28.4568 35.3731 29.66 35.3443 30.8566L35.3242 31.7047C34.9789 32.0931 34.6178 32.4678 34.2412 32.8275C34.2564 32.1561 34.2718 31.4891 34.2875 30.8318C34.3167 29.6229 34.3485 28.416 34.3852 27.2133L34.3947 26.9057C34.4649 24.6248 34.5349 22.3566 34.1715 20.7594C33.9912 19.9667 33.701 19.3364 33.3389 18.8263C32.9798 18.3206 32.5438 17.9273 32.0705 17.6062C31.5902 17.2808 31.0757 17.0323 30.5388 16.8656C29.9993 16.6979 29.4358 16.61 28.8601 16.6067C28.751 16.6062 28.6413 16.6086 28.5313 16.614C28.583 16.8752 28.6264 17.1468 28.6624 17.4309C28.7616 18.2134 28.8062 19.0918 28.8224 20.1166V20.1193C28.8365 21.0352 28.8283 22.0698 28.8072 23.0765C28.7816 24.312 28.7374 25.4938 28.6923 26.3662C28.6498 27.1966 28.6053 27.7729 28.5099 28.2201C28.3998 28.7358 28.2267 29.0878 27.9329 29.4158L27.9029 29.4468C27.6209 29.751 27.238 30.0208 26.8172 30.2109C26.4046 30.3972 25.9433 30.5124 25.4922 30.5153C25.0355 30.5181 24.5988 30.406 24.2068 30.2111C23.7942 30.006 23.4288 29.7078 23.1406 29.3566C22.86 29.0148 22.6528 28.6271 22.5082 28.1117C22.3742 27.6342 22.2946 27.0425 22.2593 26.2616C22.2223 25.4392 22.2337 24.3999 22.3145 23.3514C22.3833 22.4585 22.503 21.5483 22.6868 20.7423C22.8916 19.8438 23.1768 19.0752 23.5459 18.4243C23.9246 17.7565 24.3906 17.214 24.9475 16.7843C25.4854 16.3694 26.103 16.0627 26.7526 15.859C26.8999 15.8128 27.0493 15.7717 27.2001 15.7359L27.1673 15.6463C26.9616 15.0966 26.6843 14.5882 26.3479 14.1227C25.997 13.6377 25.5813 13.2009 25.115 12.8143C24.6546 12.4331 24.1475 12.1017 23.6114 11.8296C23.0792 11.5594 22.5168 11.3461 21.9412 11.1981L21.9198 11.1931C21.338 11.0451 20.7483 10.964 20.1523 10.9677C19.558 10.9713 18.9461 11.0596 18.3169 11.2493C17.6785 11.442 17.0256 11.7393 16.4235 12.1068C15.8289 12.4696 15.2874 12.8965 14.8607 13.3537C14.4464 13.7981 14.1373 14.2783 13.9038 14.9727C13.7845 15.3277 13.6839 15.7402 13.5984 16.2319C13.7461 16.2574 13.8936 16.2868 14.0405 16.3204C14.8236 16.4988 15.5876 16.7924 16.2549 17.213C16.9279 17.6373 17.4995 18.1888 17.9654 18.8124C18.4673 19.484 18.8464 20.2379 19.0973 21.0045C19.3368 21.7365 19.4605 22.4755 19.5257 23.2692L19.5267 23.2834C19.5875 24.0324 19.5954 24.8611 19.6035 25.7907C19.6114 26.705 19.6193 27.7197 19.6104 28.7088C19.6014 29.7165 19.5754 30.6906 19.5165 31.494C19.4555 32.3277 19.3579 33.012 19.221 33.5808L19.2151 33.6031C19.073 34.1858 18.8876 34.6479 18.6571 35.0235L18.6585 35.0243C18.4126 35.4248 18.1141 35.7279 17.779 35.9532C17.4463 36.1771 17.0842 36.3187 16.7067 36.3995C16.3346 36.4791 15.943 36.5004 15.5479 36.4599C15.1682 36.421 14.784 36.3238 14.4104 36.1651C14.0248 36.0019 13.6495 35.7729 13.3192 35.4439C12.9894 35.1157 12.707 34.6905 12.5084 34.1362C12.3205 33.6125 12.2104 32.9833 12.1467 32.0914C12.0868 31.2488 12.0667 30.131 12.0589 28.5978C12.0498 26.861 12.0563 24.5898 12.1092 22.4248C12.1493 20.7895 12.2148 19.2218 12.3176 17.9956C12.3422 17.7044 12.3686 17.4302 12.3978 17.171C12.1256 17.1612 11.8575 17.166 11.5982 17.1849C10.9743 17.2305 10.4019 17.3592 9.87958 17.5448C9.28714 17.7557 8.75889 18.0399 8.29369 18.3608C7.85655 18.6622 7.4751 18.9955 7.15217 19.3707C6.83448 19.7397 6.5705 20.1539 6.36277 20.6241C6.15291 21.0993 5.99988 21.6358 5.8895 22.3604C5.7733 23.1227 5.70387 24.0737 5.66675 25.3468C5.62863 26.6495 5.62282 28.2811 5.6326 30.0766C5.63869 31.1869 5.65116 32.3642 5.6659 33.5671C5.29252 33.2083 4.93601 32.833 4.59607 32.4411L4.59508 32.4405ZM30.4617 8.87692C31.8872 8.87692 33.0427 9.97627 33.0427 11.3326C33.0427 12.6888 31.8872 13.7883 30.4617 13.7883C29.0362 13.7883 27.8806 12.6888 27.8806 11.3326C27.8806 9.97627 29.0362 8.87692 30.4617 8.87692ZM20.3532 2.34888C21.7787 2.34888 22.9342 3.44822 22.9342 4.80455C22.9342 6.16073 21.7787 7.26007 20.3532 7.26007C18.9277 7.26007 17.7722 6.16073 17.7722 4.80455C17.7722 3.44822 18.9277 2.34888 20.3532 2.34888ZM10.8339 7.12484C12.2594 7.12484 13.4149 8.22419 13.4149 9.58051C13.4149 10.9367 12.2594 12.036 10.8339 12.036C9.40843 12.036 8.25288 10.9367 8.25288 9.58051C8.25288 8.22419 9.40843 7.12484 10.8339 7.12484ZM13.808 17.3542C13.6896 17.3272 13.5705 17.3032 13.4511 17.2822C13.423 17.5323 13.3974 17.7987 13.3734 18.0825C13.269 19.3275 13.2038 20.8666 13.165 22.4494C13.1123 24.6103 13.1058 26.8686 13.1147 28.5932C13.1223 30.0783 13.1422 31.169 13.2025 32.0159C13.2594 32.8134 13.3506 33.3561 13.5021 33.7782C13.6424 34.1699 13.8381 34.4662 14.0642 34.6915C14.2898 34.9161 14.5502 35.0743 14.8196 35.1884C15.0922 35.304 15.3744 35.3753 15.6548 35.4039C15.9376 35.4329 16.2186 35.4175 16.4863 35.3603C16.7399 35.306 16.9782 35.2142 17.1897 35.0719C17.3989 34.9313 17.5901 34.7342 17.7542 34.4669L17.7556 34.4678C17.9302 34.1837 18.0733 33.8217 18.1876 33.3521L18.1923 33.3308C18.3139 32.8262 18.4019 32.1992 18.459 31.4185C18.5184 30.608 18.5443 29.6631 18.5529 28.6998C18.5617 27.7184 18.5538 26.7085 18.546 25.7981C18.5383 24.9137 18.5307 24.1242 18.4693 23.3679L18.4682 23.3557C18.4091 22.6365 18.2996 21.9741 18.0894 21.3318C17.8722 20.668 17.5472 20.0196 17.1195 19.4471C16.7288 18.9242 16.2512 18.4629 15.6908 18.1095C15.1291 17.7555 14.4788 17.5066 13.808 17.3538V17.3542ZM27.6137 17.5637C27.5778 17.2818 27.5345 17.0147 27.4822 16.7594C27.3426 16.792 27.204 16.8295 27.0673 16.8724C26.531 17.0406 26.0261 17.2897 25.5939 17.6233C25.1487 17.9667 24.7738 18.4048 24.4659 18.9475C24.1486 19.5069 23.9005 20.1806 23.7185 20.9788C23.5485 21.725 23.4364 22.5816 23.3711 23.43C23.2927 24.4471 23.2811 25.4399 23.316 26.2158C23.3471 26.9081 23.4149 27.4228 23.5277 27.8248C23.6301 28.1893 23.7704 28.4561 23.957 28.6834C24.152 28.9209 24.3983 29.1222 24.675 29.2597C24.9275 29.3854 25.2042 29.4577 25.4878 29.4558C25.7805 29.454 26.0927 29.3733 26.3819 29.2428C26.678 29.1091 26.9395 28.9284 27.1235 28.7312L27.1454 28.7052C27.3076 28.524 27.4062 28.3166 27.4737 27.9999C27.5557 27.6153 27.5958 27.0851 27.6354 26.3122C27.681 25.4269 27.7253 24.2527 27.7503 23.0558C27.7713 22.059 27.7795 21.0372 27.7654 20.1358V20.1333C27.75 19.1458 27.7075 18.304 27.6137 17.564V17.5637Z" fill="url(#paint1_linear_411_4569)"/>
<defs>
<linearGradient id="paint0_linear_411_4569" x1="5.4449" y1="11.7256" x2="51.993" y2="67.6434" gradientUnits="userSpaceOnUse">
<stop stop-color="#0DADF1"/>
<stop offset="1" stop-color="#393185"/>
</linearGradient>
<linearGradient id="paint1_linear_411_4569" x1="10.3102" y1="10.0991" x2="30.8362" y2="37.3156" gradientUnits="userSpaceOnUse">
<stop stop-color="#FEFEFE"/>
<stop offset="1" stop-color="#D9DADA"/>
</linearGradient>
</defs>
</svg>
