<svg width="20" height="20" viewBox="0 0 20 20" fill="none" xmlns="http://www.w3.org/2000/svg">
<path d="M13.9334 11.8679C16.3823 8.47776 15.5633 3.7836 12.1053 1.38337C8.64738 -1.01686 3.85941 -0.214481 1.41099 3.17606C-1.03713 6.5663 -0.218847 11.2602 3.2397 13.6603C4.44766 14.4988 5.87725 14.9768 7.35609 15.0367C8.83493 15.0966 10.2999 14.7359 11.5743 13.9979L17.2307 19.5102C17.8413 20.1405 18.8574 20.1657 19.5003 19.567C20.1432 18.9687 20.169 17.9725 19.5587 17.3422C19.5398 17.3226 19.5204 17.3035 19.5003 17.285L13.9334 11.8679ZM7.6675 12.3817C4.93513 12.3823 2.71974 10.2122 2.71794 7.53326C2.71734 4.85437 4.93094 2.6823 7.66406 2.68127C10.3931 2.6801 12.6073 4.84688 12.6126 7.52225C12.6172 10.2017 10.4048 12.3772 7.6711 12.3817H7.6675Z" fill="#102E46"/>
</svg>
