<svg width="32" height="32" viewBox="0 0 32 32" fill="none" xmlns="http://www.w3.org/2000/svg">
<path d="M16 15.8164C18.3791 15.8164 20.3076 13.8427 20.3076 11.4082C20.3076 8.9737 18.38 7 16 7C13.62 7 11.6924 8.9737 11.6924 11.4082C11.6924 13.8427 13.62 15.8164 16 15.8164ZM18.2435 17.6533H13.7565C11.1542 17.6533 9 19.8574 9 22.5205C9 23.1631 9.2695 23.7148 9.80762 23.9902C10.6152 24.4492 12.4099 25 16 25C19.5901 25 21.3847 24.4492 22.1924 23.9902C22.4374 23.8361 22.6401 23.6202 22.7815 23.3631C22.9228 23.1059 22.998 22.8159 23 22.5205C23 19.7656 20.8466 17.6533 18.2435 17.6533Z" fill="#102E46"/>
</svg>
