<svg width="22" height="22" viewBox="0 0 22 22" fill="none" xmlns="http://www.w3.org/2000/svg">
<path d="M15.7815 20C15.3033 19.9367 14.8181 19.898 14.3434 19.803C13.3694 19.6026 12.4622 19.2016 11.5866 18.7374C10.4755 18.1501 9.42762 17.4431 8.46767 16.6307C8.07737 16.2966 7.69058 15.959 7.33191 15.5897C6.60053 14.837 5.84804 14.095 5.17995 13.286C4.0231 11.8933 3.07018 10.3705 2.47242 8.65064C2.21221 7.88394 2.02585 7.09965 2.00123 6.28019C1.98365 5.67526 2.15243 5.15123 2.599 4.71864C3.38313 3.95193 4.1532 3.17468 4.92326 2.3939C5.12369 2.19695 5.33467 2.03517 5.623 2H5.69333C6.16099 2.05275 6.37549 2.40094 6.5724 2.76671C7.10336 3.7796 7.63432 4.7925 8.16879 5.80891C8.26725 5.99883 8.37625 6.18523 8.47119 6.37866C8.66459 6.77257 8.59778 7.24384 8.30241 7.56389C8.01056 7.8769 7.71167 8.17937 7.40224 8.47831C7.22643 8.64713 7.18072 8.82649 7.26159 9.05862C7.44092 9.5932 7.71871 10.0715 8.02462 10.5393C8.52745 11.3025 9.16038 11.9461 9.80034 12.5826C10.384 13.1665 11.0029 13.7011 11.7027 14.1442C12.1281 14.415 12.5641 14.6753 13.074 14.7737C13.2463 14.8089 13.3694 14.7456 13.4784 14.6331C13.8265 14.2849 14.164 13.9261 14.5157 13.585C14.8919 13.2192 15.5073 13.1981 16.0101 13.4971C17.1564 14.1829 18.3097 14.8581 19.4596 15.5404C19.6811 15.6706 19.8675 15.8359 19.9518 16.0856C20.0573 16.3916 19.987 16.68 19.7655 16.905C18.9181 17.7632 18.0636 18.6143 17.2091 19.4654C16.8645 19.8101 16.4356 19.9683 15.9538 20H15.7815Z" fill="#2180A7"/>
</svg>
