<svg width="33" height="32" viewBox="0 0 33 32" fill="none" xmlns="http://www.w3.org/2000/svg">
<path d="M25.528 20.2102L23.0108 17.6982C22.1117 16.8011 20.5834 17.16 20.2238 18.3262C19.9541 19.1337 19.0551 19.5822 18.246 19.4028C16.4479 18.9542 14.0206 16.6217 13.5711 14.7377C13.3014 13.9303 13.8408 13.0331 14.6499 12.764C15.8186 12.4052 16.1782 10.8801 15.2792 9.98294L12.762 7.47099C12.0428 6.843 10.964 6.843 10.3347 7.47099L8.62653 9.17553C6.9184 10.9698 8.80633 15.7245 13.0317 19.941C17.2571 24.1575 22.0218 26.1312 23.8199 24.3369L25.528 22.6324C26.1573 21.9147 26.1573 20.8382 25.528 20.2102Z" fill="white"/>
</svg>
