<svg width="23" height="23" viewBox="0 0 23 23" fill="none" xmlns="http://www.w3.org/2000/svg">
<path d="M16.2815 20.5C15.8033 20.4367 15.3181 20.398 14.8434 20.303C13.8694 20.1026 12.9622 19.7016 12.0866 19.2374C10.9755 18.6501 9.92762 17.9431 8.96767 17.1307C8.57737 16.7966 8.19058 16.459 7.83191 16.0897C7.10053 15.337 6.34804 14.595 5.67995 13.786C4.5231 12.3933 3.57018 10.8705 2.97242 9.15064C2.71221 8.38394 2.52585 7.59965 2.50123 6.78019C2.48365 6.17526 2.65243 5.65123 3.099 5.21864C3.88313 4.45193 4.6532 3.67468 5.42326 2.8939C5.62369 2.69695 5.83467 2.53517 6.123 2.5H6.19333C6.66099 2.55275 6.87549 2.90094 7.0724 3.26671C7.60336 4.2796 8.13432 5.2925 8.66879 6.30891C8.76725 6.49883 8.87625 6.68523 8.97119 6.87866C9.16459 7.27257 9.09778 7.74384 8.80241 8.06389C8.51056 8.3769 8.21167 8.67937 7.90224 8.97831C7.72643 9.14713 7.68072 9.32649 7.76159 9.55862C7.94092 10.0932 8.21871 10.5715 8.52462 11.0393C9.02745 11.8025 9.66038 12.4461 10.3003 13.0826C10.884 13.6665 11.5029 14.2011 12.2027 14.6442C12.6281 14.915 13.0641 15.1753 13.574 15.2737C13.7463 15.3089 13.8694 15.2456 13.9784 15.1331C14.3265 14.7849 14.664 14.4261 15.0157 14.085C15.3919 13.7192 16.0073 13.6981 16.5101 13.9971C17.6564 14.6829 18.8097 15.3581 19.9596 16.0404C20.1811 16.1706 20.3675 16.3359 20.4518 16.5856C20.5573 16.8916 20.487 17.18 20.2655 17.405C19.4181 18.2632 18.5636 19.1143 17.7091 19.9654C17.3645 20.3101 16.9356 20.4683 16.4538 20.5H16.2815Z" fill="#2180A7"/>
</svg>
