<svg width="14" height="12" viewBox="0 0 14 12" fill="none" xmlns="http://www.w3.org/2000/svg">
<path d="M12.7233 11.1304V10.2609H13.6038V9.3913H13.0168V7.07246C13.025 6.8405 12.8413 6.64583 12.6064 6.63768C12.5964 6.63734 12.5865 6.63734 12.5765 6.63768H6.26625C6.03136 6.62953 5.83425 6.81097 5.826 7.04297C5.82565 7.05279 5.82565 7.06264 5.826 7.07246V9.3913H5.23899V10.2609H6.1195V11.1304H3.33124V8.85507C4.63732 8.50725 5.60587 6.69565 5.60587 4.44928C5.60587 1.95652 4.41719 0 2.89099 0C1.36478 0 0.176101 1.95652 0.176101 4.44928C0.176101 6.69565 1.14465 8.50725 2.45073 8.85507V11.1304H0V12H14V11.1304H12.7233ZM11.8428 11.1304H7V10.2609H11.8428V11.1304Z" fill="#2180A7"/>
</svg>
