<svg width="40" height="40" viewBox="0 0 40 40" fill="none" xmlns="http://www.w3.org/2000/svg">
<path d="M20 27.5C11.0645 27.5 3.67197 24.8875 0 20.897V25C0 30.521 8.95498 35 20 35C31.0465 35 40 30.521 40 25V20.897C36.3295 24.8875 28.9354 27.5 20 27.5Z" fill="#B3D8E5"/>
<path d="M9.22695 6.5835C3.68496 8.36104 0 11.4635 0 15C0 20.5225 8.95498 25 20 25C22.4675 25 24.8195 24.7655 27.0005 24.357L9.22695 6.5835ZM20 5C17.5325 5 15.1805 5.23447 12.9979 5.64297L30.7729 23.4165C36.317 21.639 39.9999 18.5365 39.9999 15C40 9.47754 31.0465 5 20 5Z" fill="#2180A7"/>
</svg>
