<svg width="40" height="40" viewBox="0 0 40 40" fill="none" xmlns="http://www.w3.org/2000/svg">
<path d="M16.9221 28.2473L16.9288 36.9289H7.69492C7.69492 34.2819 7.87636 33.1519 7.55102 32.1941C7.08852 30.8324 5.60183 29.8185 1.11365 25.2888C0.395326 24.5629 0 23.6011 0 22.5805L0.000384746 6.14911C0.000384746 3.94731 4.56626 2.80384 4.61358 12.1636L5.23803 14.6857C4.38476 14.7766 3.60247 15.1366 2.96485 15.7742C2.1135 16.6255 1.73703 17.7706 1.90459 18.9987C2.03915 19.9844 2.53288 20.9665 3.25947 21.693L7.44021 25.8736C7.72879 25.585 7.89091 25.1935 7.89091 24.7854C7.89091 24.3772 7.72879 23.9858 7.44021 23.6972L4.34763 20.6049C3.39557 19.6528 2.94956 17.9662 4.05349 16.8623C4.52423 16.3915 5.0671 16.1953 5.61007 16.1882L5.61161 16.1945C7.03129 16.1764 8.17486 17.4192 9.22632 18.5618C9.40764 18.7589 9.58623 18.9529 9.76302 19.1371C10.4246 19.7989 11.1359 20.4302 11.9298 20.6705C14.7744 21.5964 16.9221 24.0545 16.9221 28.2473Z" fill="#2180A7"/>
<path d="M35.3864 12.1637C35.4337 2.80394 39.9996 3.9475 39.9996 6.14921L40 22.5806C40 23.6011 39.6048 24.5629 38.8864 25.2889C34.3981 29.8187 32.9115 30.8326 32.449 32.1943C32.1236 33.1522 32.3051 34.2821 32.3051 36.929H23.0712L23.0779 28.2474C23.0779 24.0547 25.2256 21.5965 28.0702 20.6707C28.864 20.4303 29.5753 19.7991 30.237 19.1373C30.4138 18.9531 30.5924 18.7591 30.7737 18.562C31.8251 17.4194 32.9687 16.1766 34.3884 16.1947L34.3899 16.1884C34.9328 16.1955 35.4758 16.3917 35.9465 16.8625C37.0504 17.9663 36.6044 19.653 35.6524 20.6051L32.5598 23.6974C32.2712 23.9859 32.109 24.3775 32.109 24.7855C32.109 25.1937 32.2712 25.585 32.5598 25.8738L36.7405 21.6932C37.4672 20.9667 37.9609 19.9846 38.0954 18.9988C38.2631 17.7708 37.8865 16.6257 37.0351 15.7744C36.3975 15.1367 35.6152 14.7768 34.762 14.6858L35.3864 12.1637Z" fill="#2180A7"/>
<path d="M24.806 3.07129C26.1898 3.07129 27.5631 3.55636 28.6355 4.56632C30.9947 6.78755 31.0369 10.502 28.7619 12.7771L19.9998 21.5391L11.2377 12.7771C8.96274 10.5021 9.00487 6.78764 11.364 4.56632C12.4368 3.55636 13.8094 3.07129 15.1935 3.07129C16.7512 3.07129 18.3233 3.68621 19.4959 4.85882L19.9997 5.36284L20.5036 4.85901C21.6762 3.68592 23.2483 3.07129 24.806 3.07129Z" fill="#B3D8E5"/>
</svg>
