<svg width="40" height="40" viewBox="0 0 40 40" fill="none" xmlns="http://www.w3.org/2000/svg">
<g clip-path="url(#clip0_154_3079)">
<path d="M23.7241 11.243C23.7241 9.18959 22.0535 7.51904 20.0001 7.51904C15.0665 7.70623 15.0678 14.7805 20.0002 14.967C22.0534 14.967 23.7241 13.2965 23.7241 11.243Z" fill="#B3D8E5"/>
<path d="M12.5947 21.6198C12.9929 17.8855 16.162 14.967 20.0002 14.967C24.107 14.967 27.448 18.3081 27.448 22.4149V27.4358C27.448 29.0568 26.3954 30.4364 24.9376 30.927V38.816C24.9376 39.4632 24.4129 39.9879 23.7657 39.9879H16.2345C15.5873 39.9879 15.0626 39.4632 15.0626 38.816V35.8384C16.4143 34.7166 17.2397 33.0329 17.2397 31.2014V29.9462C17.2397 26.4338 15.3804 23.348 12.5947 21.6198Z" fill="#B3D8E5"/>
<path d="M25.1465 14.0887C25.5446 10.3544 28.7137 7.43585 32.5519 7.43585C36.6586 7.43585 39.9998 10.777 39.9998 14.8837V23.6702C39.9998 25.2912 38.9471 26.6708 37.4894 27.1614V38.8161C37.4894 39.4633 36.9647 39.988 36.3175 39.988H28.7863C28.1391 39.988 27.6144 39.4633 27.6144 38.8161V32.0729C28.9661 30.9512 29.7915 29.2675 29.7915 27.4359V22.4151C29.7915 18.9026 27.9322 15.8169 25.1465 14.0887Z" fill="#2180A7"/>
<path d="M32.5519 7.43585C30.4984 7.43585 28.8279 5.7653 28.8279 3.71194C29.0144 -1.22032 36.0887 -1.22173 36.2759 3.71187C36.2759 5.7653 34.6052 7.43585 32.5519 7.43585Z" fill="#2180A7"/>
<path d="M11.1719 18.7744C11.1719 20.8278 9.50125 22.4983 7.44789 22.4983C5.39453 22.4983 3.72399 20.8278 3.72391 18.7744C3.91039 13.8422 10.9847 13.8408 11.1719 18.7744Z" fill="#2180A7"/>
<path d="M0 29.9462C0 25.8337 3.32711 22.4983 7.44789 22.4983C11.5613 22.4983 14.8959 25.8261 14.8958 29.9462V31.2014C14.8958 32.8224 13.8431 34.202 12.3854 34.6926V38.816C12.3854 39.4632 11.8607 39.9879 11.2135 39.9879H3.68227C3.03508 39.9879 2.51039 39.4632 2.51039 38.816V34.6926C1.05266 34.202 0 32.8224 0 31.2014V29.9462Z" fill="#2180A7"/>
</g>
<defs>
<clipPath id="clip0_154_3079">
<rect width="40" height="40" fill="white"/>
</clipPath>
</defs>
</svg>
