<svg width="22" height="22" viewBox="0 0 22 22" fill="none" xmlns="http://www.w3.org/2000/svg">
<g clip-path="url(#clip0_176_2633)">
<path d="M20.166 10.0833C19.9229 10.0833 19.6897 10.1799 19.5178 10.3518C19.3459 10.5237 19.2494 10.7569 19.2494 11C19.2494 12.6317 18.7655 14.2268 17.859 15.5835C16.9525 16.9402 15.664 17.9976 14.1565 18.622C12.649 19.2464 10.9902 19.4098 9.38986 19.0915C7.78952 18.7732 6.31951 17.9874 5.16572 16.8336C4.01194 15.6799 3.2262 14.2099 2.90787 12.6095C2.58955 11.0092 2.75292 9.35037 3.37735 7.84288C4.00177 6.33539 5.05919 5.04691 6.4159 4.14039C7.7726 3.23387 9.36766 2.75001 10.9994 2.75001C12.4199 2.74747 13.8166 3.1159 15.051 3.81885L14.0179 4.85193C13.8898 4.98013 13.8025 5.14345 13.7672 5.32124C13.7318 5.49903 13.75 5.68331 13.8193 5.85078C13.8887 6.01826 14.0061 6.16141 14.1569 6.26213C14.3076 6.36286 14.4847 6.41664 14.666 6.41668H18.3327C18.5758 6.41668 18.809 6.3201 18.9809 6.1482C19.1528 5.97629 19.2494 5.74313 19.2494 5.50001V1.83335C19.2493 1.65208 19.1955 1.47489 19.0948 1.32418C18.9941 1.17347 18.8509 1.05601 18.6835 0.986644C18.516 0.917279 18.3317 0.899127 18.1539 0.93448C17.9761 0.969834 17.8128 1.05711 17.6846 1.18526L16.3912 2.47502C14.7797 1.45109 12.9086 0.910307 10.9994 0.916682C9.00506 0.916682 7.05555 1.50806 5.39735 2.61603C3.73916 3.724 2.44675 5.2988 1.68357 7.14129C0.920385 8.98378 0.720701 11.0112 1.10977 12.9672C1.49884 14.9232 2.45918 16.7198 3.86936 18.13C5.27954 19.5402 7.07622 20.5005 9.03219 20.8896C10.9882 21.2787 13.0156 21.079 14.8581 20.3158C16.7006 19.5526 18.2754 18.2602 19.3833 16.602C20.4913 14.9438 21.0827 12.9943 21.0827 11C21.0827 10.7569 20.9861 10.5237 20.8142 10.3518C20.6423 10.1799 20.4091 10.0833 20.166 10.0833Z" fill="#102E46"/>
</g>
<defs>
<clipPath id="clip0_176_2633">
<rect width="22" height="22" fill="white"/>
</clipPath>
</defs>
</svg>
