<svg width="20" height="20" viewBox="0 0 20 20" fill="none" xmlns="http://www.w3.org/2000/svg">
<path fill-rule="evenodd" clip-rule="evenodd" d="M3.80938 3H13.0635C13.3222 3 13.5322 3.20964 13.5322 3.46796V9.4057C13.5322 10.4018 12.7207 11.212 11.7228 11.212H6.05439C5.78876 11.212 5.53438 11.2934 5.31813 11.4472L2.74094 13.2829C2.43434 13.5015 2 13.2854 2 12.902V4.80631C2 3.81019 2.81156 3 3.80938 3ZM5.37063 8.66882H10.7866C11.0453 8.66882 11.2553 8.45949 11.2553 8.20086C11.2553 7.94255 11.0453 7.73291 10.7866 7.73291H5.37063C5.11188 7.73291 4.90188 7.94255 4.90188 8.20086C4.90188 8.45949 5.11188 8.66882 5.37063 8.66882ZM5.37063 6.48502H10.7866C11.0453 6.48502 11.2553 6.27569 11.2553 6.01707C11.2553 5.75876 11.0453 5.54911 10.7866 5.54911H5.37063C5.11188 5.54911 4.90188 5.75876 4.90188 6.01707C4.90188 6.27569 5.11188 6.48502 5.37063 6.48502Z" fill="#102E46"/>
<path d="M18 16.5315V8.43621C18 7.44008 17.1884 6.62958 16.1906 6.62958H14.4697V9.40581C14.4697 10.9179 13.2375 12.148 11.7228 12.148H6.46778V13.0353C6.46778 14.0314 7.27935 14.8419 8.27716 14.8419H13.9456C14.2112 14.8419 14.4656 14.9233 14.6819 15.0771L17.2591 16.9125C17.5678 17.1326 18 16.9124 18 16.5315Z" fill="#102E46"/>
</svg>
