<svg width="34" height="42" viewBox="0 0 34 42" fill="none" xmlns="http://www.w3.org/2000/svg">
<path d="M12.4292 12.6281C10.8601 14.6087 9.87758 16.9893 9.593 19.5H0.5V9.00002C0.507395 6.67913 1.4111 4.45081 3.0224 2.78039C4.6337 1.10997 6.82802 0.126595 9.14714 0.0356113C11.4663 -0.0553725 13.7309 0.75307 15.4681 2.29212C17.2053 3.83117 18.2808 5.98184 18.47 8.29502C16.091 9.14643 13.9983 10.6476 12.4292 12.6281Z" fill="#B3D8E5"/>
<path d="M0.5 22.5H9.593C9.87758 25.0107 10.8601 27.3914 12.4292 29.3719C13.9983 31.3525 16.091 32.8536 18.47 33.705C18.2808 36.0182 17.2053 38.1689 15.4681 39.7079C13.7309 41.247 11.4663 42.0554 9.14714 41.9644C6.82802 41.8734 4.6337 40.8901 3.0224 39.2196C1.4111 37.5492 0.507395 35.3209 0.5 33V22.5Z" fill="#B3D8E5"/>
<path d="M22.2422 10.526C24.7605 10.3484 27.2582 11.086 29.276 12.603L14.603 27.276C13.086 25.2582 12.3484 22.7605 12.526 20.2422C12.7035 17.7239 13.7841 15.3544 15.5692 13.5692C17.3544 11.7841 19.7239 10.7035 22.2422 10.526Z" fill="#2180A7"/>
<path d="M23.7579 31.4741C21.2396 31.6517 18.7419 30.9141 16.724 29.397L31.397 14.724C32.9141 16.7419 33.6517 19.2396 33.4741 21.7579C33.2966 24.2762 32.216 26.6457 30.4309 28.4309C28.6457 30.216 26.2762 31.2966 23.7579 31.4741Z" fill="#2180A7"/>
</svg>
