<svg width="47" height="45" viewBox="0 0 47 45" fill="none" xmlns="http://www.w3.org/2000/svg">
<path d="M46.2151 17.0415L24.6749 1.37602C23.8916 0.78856 23.1083 0.78856 22.3251 1.37602L0.784871 17.0415C-0.781716 18.0206 0.197412 20.5663 1.95979 20.5663H5.87621V42.1065C5.87621 43.2814 6.65946 44.0646 7.83437 44.0646H39.1655C40.3404 44.0646 41.1236 43.2814 41.1236 42.1065V20.5663H45.0401C46.8025 20.5663 47.7816 18.0206 46.2151 17.0415ZM23.5 40.1483C17.0379 40.1483 11.7508 34.8612 11.7508 28.3991C11.7508 21.9371 17.0379 16.6499 23.5 16.6499C29.962 16.6499 35.2491 21.9371 35.2491 28.3991C35.2491 34.8612 29.962 40.1483 23.5 40.1483Z" fill="#2180A7"/>
<path d="M26.4372 25.4619V22.5246C26.4372 20.9024 25.1222 19.5873 23.4999 19.5873C21.8777 19.5873 20.5626 20.9024 20.5626 22.5246V25.4619H17.6253C16.0031 25.4619 14.688 26.777 14.688 28.3992C14.688 30.0214 16.0031 31.3365 17.6253 31.3365H20.5626V34.2738C20.5626 35.896 21.8777 37.2111 23.4999 37.2111C25.1222 37.2111 26.4372 35.896 26.4372 34.2738V31.3365H29.3745C30.9967 31.3365 32.3118 30.0214 32.3118 28.3992C32.3118 26.777 30.9967 25.4619 29.3745 25.4619H26.4372Z" fill="#B3D8E5"/>
</svg>
