<svg width="33" height="42" viewBox="0 0 33 42" fill="none" xmlns="http://www.w3.org/2000/svg">
<path d="M28.5 15H25.5V13.5H23.31C22.9122 13.5 22.5306 13.658 22.2493 13.9393C21.968 14.2206 21.81 14.6022 21.81 15V20.748C21.8286 22.0304 21.4085 23.2807 20.6193 24.2917C19.83 25.3027 18.7191 26.0137 17.4705 26.307C16.6662 26.4818 15.833 26.4744 15.032 26.2853C14.2309 26.0962 13.4824 25.7302 12.8413 25.214C12.2002 24.6979 11.6827 24.0448 11.3269 23.3026C10.9711 22.5605 10.7859 21.748 10.785 20.925V13.395C10.785 13.3015 10.7479 13.2118 10.6818 13.1457C10.6156 13.0796 10.526 13.0425 10.4325 13.0425C10.339 13.0425 10.2494 13.0796 10.1832 13.1457C10.1171 13.2118 10.08 13.3015 10.08 13.395V14.832C10.1027 16.2782 9.57166 17.6784 8.59565 18.7459C7.61964 19.8134 6.27248 20.4674 4.83 20.574C3.64745 20.6312 2.47844 20.3016 1.5 19.635V34.5C1.5 36.4891 2.29018 38.3968 3.6967 39.8033C5.10322 41.2098 7.01088 42 9 42H18C19.4579 41.9984 20.8837 41.5719 22.1031 40.7726C23.3224 39.9734 24.2823 38.8362 24.8655 37.5H28.5C29.6935 37.5 30.8381 37.0259 31.682 36.182C32.5259 35.3381 33 34.1935 33 33V19.5C33 18.3065 32.5259 17.1619 31.682 16.318C30.8381 15.4741 29.6935 15 28.5 15ZM30 33C30 33.3978 29.842 33.7793 29.5607 34.0606C29.2794 34.3419 28.8978 34.5 28.5 34.5H25.5V18H28.5C28.8978 18 29.2794 18.158 29.5607 18.4393C29.842 18.7206 30 19.1022 30 19.5V33Z" fill="#2180A7"/>
<path d="M15.87 23.4C15.2706 23.2775 14.7333 22.9482 14.3519 22.4698C13.9705 21.9914 13.7694 21.3942 13.7835 20.7825V13.5825C13.8021 12.7292 13.507 11.8986 12.954 11.2484C12.4011 10.5981 11.6288 10.1733 10.7835 10.0545C10.3172 10.0065 9.84591 10.0568 9.40021 10.2022C8.95451 10.3476 8.54426 10.5849 8.19596 10.8987C7.84766 11.2125 7.56905 11.5959 7.37812 12.0241C7.18719 12.4522 7.08819 12.9157 7.08751 13.3845V14.9175C7.10137 15.5291 6.90009 16.1262 6.51877 16.6045C6.13745 17.0829 5.6003 17.4122 5.00101 17.535C4.64057 17.5961 4.27115 17.5778 3.91849 17.4815C3.56582 17.3852 3.23838 17.2132 2.95896 16.9775C2.67954 16.7418 2.45486 16.448 2.30056 16.1166C2.14626 15.7852 2.06605 15.4241 2.06551 15.0585V13.485L1.42951 12.981C0.995727 12.64 0.641504 12.2084 0.39151 11.7165C0.139185 11.1948 0.00811768 10.6228 0.00811768 10.0433C0.00811768 9.46375 0.139185 8.89173 0.39151 8.37002C0.69339 7.79709 1.14423 7.3162 1.69651 6.97802L2.18101 6.67802L2.37901 6.14252C2.6234 5.42486 3.06056 4.78829 3.64262 4.30253C4.22469 3.81677 4.9292 3.50056 5.67901 3.38852C6.06111 3.33454 6.44891 3.33454 6.83101 3.38852L7.82551 3.53852L8.42551 2.72852C9.03827 1.88146 9.84371 1.19228 10.7753 0.717858C11.707 0.24344 12.7381 -0.00260914 13.7835 2.0864e-05C14.8164 0.00455109 15.8342 0.248568 16.7569 0.712893C17.6795 1.17722 18.4819 1.8492 19.101 2.67602L19.6035 3.34802H20.442C21.104 3.34506 21.7602 3.47268 22.3728 3.72356C22.9855 3.97445 23.5426 4.34369 24.0124 4.81014C24.4822 5.27659 24.8554 5.83111 25.1107 6.44196C25.3659 7.0528 25.4982 7.70799 25.5 8.37002V10.5H21.804C21.0084 10.5 20.2453 10.8161 19.6827 11.3787C19.1201 11.9413 18.804 12.7044 18.804 13.5V20.9235C18.8037 21.289 18.7237 21.6501 18.5696 21.9815C18.4154 22.3129 18.1909 22.6067 17.9116 22.8425C17.6323 23.0782 17.3049 23.2503 16.9523 23.3465C16.5997 23.4428 16.2304 23.4611 15.87 23.4Z" fill="#B3D8E5"/>
</svg>
