<svg width="48" height="44" viewBox="0 0 48 44" fill="none" xmlns="http://www.w3.org/2000/svg">
<path d="M22.3611 6.15625L17.9984 1.58875C17.4796 1.04537 16.7802 0.736654 16.029 0.719498C15.2763 0.701685 14.5651 0.978623 14.0219 1.49753L0.870032 14.0597C0.326751 14.5787 0.0180319 15.278 0.000875643 16.0292C-0.0162806 16.7803 0.260001 17.4931 0.778907 18.0362L9.28128 26.9378V11.7812C9.28128 8.67962 11.8047 6.15625 14.9063 6.15625H22.3611ZM45.8786 6.48044L28.2492 2.00997C27.5209 1.825 26.7643 1.93515 26.1188 2.31953C25.4732 2.7039 25.0161 3.31665 24.8315 4.04472L24.2961 6.15625H33.0938C36.1954 6.15625 38.7188 8.67962 38.7188 11.7812V39.7662C39.0205 39.7019 39.3095 39.5885 39.5744 39.4306C40.2199 39.0462 40.6771 38.4335 40.8618 37.7054L47.9134 9.898C48.2946 8.39472 47.3818 6.86162 45.8786 6.48044Z" fill="#B3D8E5"/>
<path d="M33.0938 8.96875H14.9062C13.3554 8.96875 12.0938 10.2304 12.0938 11.7812V40.4688C12.0938 42.0196 13.3554 43.2812 14.9062 43.2812H33.0938C34.6446 43.2812 35.9062 42.0196 35.9062 40.4688V11.7812C35.9062 10.2304 34.6446 8.96875 33.0938 8.96875ZM18.75 14.2188C19.5266 14.2188 20.1562 14.8485 20.1562 15.6251C20.1562 16.4017 19.5266 17.0313 18.75 17.0313C17.9734 17.0313 17.3438 16.4017 17.3438 15.6251C17.3438 14.8485 17.9734 14.2188 18.75 14.2188ZM24 32.7812C23.654 32.7816 23.3201 32.654 23.0624 32.4231L18.8691 28.672C18.8596 28.6636 18.8504 28.655 18.8411 28.6464C17.789 27.6528 17.2829 26.1503 17.4872 24.6272C17.6814 23.1784 18.5065 21.9351 19.6944 21.3012C20.2715 20.994 20.8809 20.8384 21.5071 20.8384C22.457 20.8384 23.3252 21.2003 24 21.8066C24.6748 21.2003 25.543 20.8384 26.4929 20.8384C27.1191 20.8384 27.7285 20.9939 28.3044 21.3006C29.4935 21.9351 30.3185 23.1783 30.5128 24.6271C30.7171 26.1502 30.2109 27.6528 29.1589 28.6463C29.1497 28.655 29.1404 28.6635 29.1309 28.6719L24.9376 32.423C24.68 32.654 24.346 32.7816 24 32.7812ZM29.25 38.0311C28.4734 38.0311 27.8438 37.4015 27.8438 36.6248C27.8438 35.8482 28.4734 35.2186 29.25 35.2186C30.0266 35.2186 30.6562 35.8482 30.6562 36.6248C30.6562 37.4014 30.0266 38.0311 29.25 38.0311Z" fill="#2180A7"/>
</svg>
