<svg width="18" height="18" viewBox="0 0 18 18" fill="none" xmlns="http://www.w3.org/2000/svg">
<path d="M13.5 0H4.5C2.02522 0 0 2.02434 0 4.5V13.5C0 15.9748 2.02522 18 4.5 18H13.5C15.9748 18 18 15.9748 18 13.5V4.5C18 2.02434 15.9748 0 13.5 0ZM9 12.7499C6.92864 12.7499 5.24993 11.0704 5.24993 9C5.24993 6.92864 6.92864 5.24993 9 5.24993C11.0704 5.24993 12.7501 6.92864 12.7501 9C12.7501 11.0704 11.0704 12.7499 9 12.7499ZM13.8751 5.24993C13.2532 5.24993 12.7501 4.74614 12.7501 4.12493C12.7501 3.50372 13.2532 2.99993 13.8751 2.99993C14.497 2.99993 15.0001 3.50372 15.0001 4.12493C15.0001 4.74614 14.497 5.24993 13.8751 5.24993Z" fill="white"/>
</svg>
