<svg width="12" height="22" viewBox="0 0 12 22" fill="none" xmlns="http://www.w3.org/2000/svg">
<path d="M3.34107 12.418H0.584687C0.139211 12.418 0 12.2528 0 11.8398V8.50813C0 8.06758 0.167053 7.92991 0.584687 7.92991H3.34107V5.50688C3.34107 4.40551 3.53596 3.3592 4.09281 2.39549C4.67749 1.40425 5.51276 0.743429 6.57077 0.357947C7.26682 0.110137 7.96288 0 8.71462 0H11.4432C11.8329 0 12 0.165207 12 0.550688V3.68961C12 4.07509 11.8329 4.2403 11.4432 4.2403C10.6914 4.2403 9.93968 4.2403 9.18794 4.26783C8.4362 4.26783 8.0464 4.62578 8.0464 5.39675C8.01856 6.22278 8.0464 7.02128 8.0464 7.87484H11.2761C11.7216 7.87484 11.8886 8.04005 11.8886 8.4806V11.8123C11.8886 12.2528 11.7494 12.3905 11.2761 12.3905H8.0464V21.3667C8.0464 21.8348 7.90719 22 7.40603 22H3.92575C3.50812 22 3.34107 21.8348 3.34107 21.4218V12.418Z" fill="white"/>
</svg>
