<svg width="10" height="10" viewBox="0 0 10 10" fill="none" xmlns="http://www.w3.org/2000/svg">
<path d="M4.38673 0.348976C4.67403 -0.116325 5.32597 -0.116325 5.61327 0.348976L6.83991 2.33559C6.93853 2.49532 7.09081 2.61079 7.26684 2.65932L9.45628 3.26292C9.96908 3.4043 10.1705 4.05139 9.8353 4.48034L8.40397 6.31175C8.28889 6.45899 8.23072 6.64582 8.24089 6.83554L8.3674 9.19521C8.39703 9.74789 7.8696 10.1478 7.37511 9.94761L5.26386 9.09287C5.09412 9.02415 4.90588 9.02415 4.73614 9.09287L2.62489 9.94761C2.1304 10.1478 1.60297 9.74788 1.6326 9.19521L1.75911 6.83554C1.76928 6.64582 1.71111 6.45899 1.59603 6.31175L0.164699 4.48034C-0.170545 4.05139 0.0309165 3.4043 0.543721 3.26292L2.73316 2.65932C2.90919 2.61079 3.06147 2.49532 3.16009 2.33559L4.38673 0.348976Z" fill="#2180A7"/>
</svg>
