<svg width="20" height="20" viewBox="0 0 20 20" fill="none" xmlns="http://www.w3.org/2000/svg">
<path d="M9.14543 2.40616C9.53491 1.76529 10.4651 1.76529 10.8546 2.40616L12.7609 5.54303C12.9 5.77187 13.125 5.93537 13.3857 5.99691L16.9581 6.84063C17.688 7.01301 17.9754 7.89766 17.4862 8.46611L15.092 11.2485C14.9173 11.4515 14.8314 11.7161 14.8534 11.9829L15.1549 15.6412C15.2165 16.3887 14.464 16.9354 13.7722 16.6458L10.3861 15.2286C10.1391 15.1252 9.86092 15.1252 9.61391 15.2286L6.22781 16.6458C5.53602 16.9354 4.78349 16.3887 4.84509 15.6412L5.14662 11.9829C5.16861 11.7161 5.08266 11.4515 4.908 11.2485L2.51375 8.46611C2.0246 7.89766 2.31204 7.01301 3.0419 6.84063L6.61435 5.99691C6.87496 5.93537 7.09999 5.77187 7.23906 5.54303L9.14543 2.40616Z" fill="#102E46"/>
</svg>
