<svg width="22" height="22" viewBox="0 0 22 22" fill="none" xmlns="http://www.w3.org/2000/svg">
<path d="M11 2C9.21997 2 7.47991 2.52784 5.99987 3.51677C4.51983 4.50571 3.36628 5.91131 2.68509 7.55585C2.0039 9.20038 1.82567 11.01 2.17294 12.7558C2.5202 14.5016 3.37737 16.1053 4.63604 17.364C5.89472 18.6226 7.49836 19.4798 9.24419 19.8271C10.99 20.1743 12.7996 19.9961 14.4442 19.3149C16.0887 18.6337 17.4943 17.4802 18.4832 16.0001C19.4722 14.5201 20 12.78 20 11C19.9972 8.61391 19.0481 6.32636 17.3609 4.63915C15.6736 2.95193 13.3861 2.00281 11 2ZM14.033 14.033C13.8796 14.1864 13.6715 14.2726 13.4545 14.2726C13.2376 14.2726 13.0295 14.1864 12.8761 14.033L10.4215 11.5785C10.2681 11.425 10.1819 11.217 10.1818 11V6.09091C10.1818 5.87391 10.268 5.66581 10.4215 5.51237C10.5749 5.35893 10.783 5.27273 11 5.27273C11.217 5.27273 11.4251 5.35893 11.5785 5.51237C11.732 5.66581 11.8182 5.87391 11.8182 6.09091V10.6613L14.033 12.8761C14.1864 13.0295 14.2726 13.2376 14.2726 13.4545C14.2726 13.6715 14.1864 13.8796 14.033 14.033Z" fill="#2180A7"/>
</svg>
