<svg width="48" height="48" viewBox="0 0 48 48" fill="none" xmlns="http://www.w3.org/2000/svg">
<path d="M46.0452 33.7971H1.91565C2.04401 35.0849 2.04433 35.0903 2.04531 35.0956C2.04543 35.0963 2.04556 35.097 2.04596 35.1002C2.36743 37.8582 4.38596 40.0783 6.96465 40.0783H40.9962C43.2779 40.0783 45.523 38.2345 45.9177 35.0767L46.0452 33.7971Z" fill="#B3D8E5"/>
<path d="M46.3265 30.9846L47.9698 14.5127C48.3489 11.1938 45.0853 9.05064 42.7166 10.8949C42.7099 10.9003 42.7052 10.9037 42.7006 10.9072C42.6395 10.9539 42.5864 11.0109 37.7707 15.7427C36.8938 16.6028 35.8678 16.6664 34.9978 16.1664C34.9855 16.1594 34.9755 16.1541 34.9655 16.1485C34.8068 16.0602 34.6711 15.9303 25.9038 8.56332C24.9687 7.78482 23.3726 7.62732 22.1316 8.58207C22.1253 8.587 22.1221 8.58913 22.1189 8.59132C22.0734 8.62254 22.0352 8.66424 13.4182 16.9314C13.0788 17.2441 12.6701 17.5003 12.0982 17.5699C10.8647 17.717 10.3125 17.0672 7.73408 14.0329C7.13213 13.3245 6.41974 12.4862 5.56247 11.4977C3.67987 9.33432 -0.39797 11.0817 0.0315922 14.8624L1.6364 30.9846H46.3265Z" fill="#2180A7"/>
</svg>
