<svg width="48" height="48" viewBox="0 0 48 48" fill="none" xmlns="http://www.w3.org/2000/svg">
<path d="M17.489 22.6473H6.58534C3.73601 22.6473 1.41528 20.3288 1.41528 17.4788V6.57478C1.41528 3.72469 3.73601 1.40625 6.58534 1.40616H17.489C20.3383 1.40616 22.6547 3.72469 22.6547 6.57478V17.4788C22.6547 20.3288 20.3383 22.6473 17.489 22.6473Z" fill="#2180A7"/>
<path d="M30.5286 25.3529H41.4367C44.2858 25.3529 46.6024 27.6714 46.6024 30.5213V41.4254C46.6024 44.2754 44.2858 46.5938 41.4367 46.5938H30.5286C27.6793 46.5938 25.363 44.2754 25.363 41.4254V30.5213C25.363 27.6714 27.6793 25.3529 30.5286 25.3529Z" fill="#2180A7"/>
<path d="M35.9804 2.46094C30.7091 2.46094 26.4155 6.75197 26.4155 12.0272C26.4155 17.3016 30.7091 21.5935 35.9804 21.5935C41.2561 21.5935 45.5497 17.3016 45.5497 12.0272C45.5497 6.75197 41.2561 2.46094 35.9804 2.46094Z" fill="#B3D8E5"/>
<path d="M12.0372 26.2697C13.3759 26.2697 14.5737 26.9616 15.2431 28.1213L22.1702 40.1213C22.8395 41.281 22.8395 42.6656 22.1702 43.8253C21.5009 44.9851 20.303 45.678 18.9643 45.678H5.1057C3.76695 45.678 2.56911 44.9851 1.89974 43.8253C1.23036 42.6656 1.23036 41.281 1.89974 40.1213L8.82683 28.1213C9.4962 26.9616 10.6985 26.2697 12.0372 26.2697Z" fill="#B3D8E5"/>
</svg>
