<svg width="48" height="48" viewBox="0 0 48 48" fill="none" xmlns="http://www.w3.org/2000/svg">
<path d="M32 2.5H8C7.27758 2.49948 6.56215 2.64138 5.89462 2.91759C5.22709 3.19381 4.62057 3.59891 4.10974 4.10974C3.59891 4.62057 3.19381 5.22709 2.91759 5.89462C2.64138 6.56215 2.49948 7.27758 2.5 8V40C2.49948 40.7224 2.64138 41.4379 2.91759 42.1054C3.19381 42.7729 3.59891 43.3794 4.10974 43.8903C4.62057 44.4011 5.22709 44.8062 5.89462 45.0824C6.56215 45.3586 7.27758 45.5005 8 45.5H26.98C24.4647 43.9716 22.5187 41.662 21.4393 38.9238C20.3598 36.1856 20.2062 33.1694 21.0019 30.3357C21.7976 27.5021 23.4989 25.0067 25.8459 23.2307C28.1929 21.4547 31.0567 20.4956 34 20.5C35.1833 20.4968 36.3613 20.6583 37.5 20.98V8C37.5005 7.27758 37.3586 6.56215 37.0824 5.89462C36.8062 5.22709 36.4011 4.62057 35.8903 4.10974C35.3794 3.59891 34.7729 3.19381 34.1054 2.91759C33.4379 2.64138 32.7224 2.49948 32 2.5ZM20 21.5H10C9.60218 21.5 9.22065 21.342 8.93934 21.0607C8.65804 20.7794 8.5 20.3978 8.5 20C8.5 19.6022 8.65804 19.2206 8.93934 18.9393C9.22065 18.658 9.60218 18.5 10 18.5H20C20.3978 18.5 20.7794 18.658 21.0607 18.9393C21.342 19.2206 21.5 19.6022 21.5 20C21.5 20.3978 21.342 20.7794 21.0607 21.0607C20.7794 21.342 20.3978 21.5 20 21.5ZM24 13.5H10C9.60218 13.5 9.22065 13.342 8.93934 13.0607C8.65804 12.7794 8.5 12.3978 8.5 12C8.5 11.6022 8.65804 11.2206 8.93934 10.9393C9.22065 10.658 9.60218 10.5 10 10.5H24C24.3978 10.5 24.7794 10.658 25.0607 10.9393C25.342 11.2206 25.5 11.6022 25.5 12C25.5 12.3978 25.342 12.7794 25.0607 13.0607C24.7794 13.342 24.3978 13.5 24 13.5Z" fill="#2180A7"/>
<path d="M34 22.5C31.7255 22.5 29.5021 23.1745 27.6109 24.4381C25.7198 25.7017 24.2458 27.4978 23.3754 29.5991C22.505 31.7005 22.2772 34.0128 22.721 36.2435C23.1647 38.4743 24.26 40.5234 25.8683 42.1317C27.4766 43.74 29.5257 44.8353 31.7565 45.279C33.9872 45.7228 36.2995 45.495 38.4009 44.6246C40.5022 43.7542 42.2983 42.2802 43.5619 40.3891C44.8255 38.4979 45.5 36.2745 45.5 34C45.4963 30.9511 44.2835 28.0282 42.1276 25.8724C39.9718 23.7165 37.0489 22.5037 34 22.5ZM38.06 33.06L34.06 37.06C33.921 37.1996 33.7558 37.3103 33.5739 37.3859C33.392 37.4614 33.197 37.5003 33 37.5003C32.803 37.5003 32.608 37.4614 32.4261 37.3859C32.2442 37.3103 32.079 37.1996 31.94 37.06L29.94 35.06C29.7926 34.9227 29.6744 34.7571 29.5924 34.5731C29.5105 34.3891 29.4664 34.1904 29.4628 33.989C29.4593 33.7876 29.4963 33.5876 29.5718 33.4008C29.6472 33.214 29.7595 33.0444 29.9019 32.9019C30.0444 32.7595 30.214 32.6472 30.4008 32.5718C30.5876 32.4963 30.7876 32.4593 30.989 32.4628C31.1905 32.4664 31.3891 32.5105 31.5731 32.5924C31.7571 32.6744 31.9227 32.7926 32.06 32.94L33 33.878L35.94 30.94C36.0773 30.7926 36.2429 30.6744 36.4269 30.5924C36.6109 30.5105 36.8096 30.4664 37.011 30.4628C37.2124 30.4593 37.4124 30.4963 37.5992 30.5718C37.786 30.6472 37.9556 30.7595 38.0981 30.9019C38.2405 31.0444 38.3528 31.214 38.4283 31.4008C38.5037 31.5876 38.5407 31.7876 38.5372 31.989C38.5336 32.1904 38.4896 32.3891 38.4076 32.5731C38.3256 32.7571 38.2074 32.9227 38.06 33.06Z" fill="#B3D8E5"/>
</svg>
