<svg width="22" height="22" viewBox="0 0 22 22" fill="none" xmlns="http://www.w3.org/2000/svg">
<path fill-rule="evenodd" clip-rule="evenodd" d="M18.7947 3.19715C16.7266 1.13654 13.9761 0.00120312 11.046 0C5.00821 0 0.094295 4.89026 0.0918772 10.9008C0.0910482 12.8222 0.595371 14.6977 1.554 16.351L0 22L5.80695 20.484C7.407 21.3527 9.20838 21.8104 11.0415 21.8109H11.0462C17.0833 21.8109 21.9977 16.9203 22 10.9095C22.0012 7.99648 20.8629 5.25766 18.7947 3.19715ZM11.046 19.9698H11.0422C9.40857 19.9691 7.80635 19.5322 6.40826 18.7068L6.07599 18.5104L2.63004 19.41L3.54978 16.0664L3.33321 15.7236C2.42183 14.2809 1.94054 12.6135 1.94137 10.9014C1.94327 5.90562 6.02766 1.84119 11.0497 1.84119C13.4815 1.84198 15.7675 2.78568 17.4864 4.49838C19.2053 6.21108 20.1514 8.48763 20.1506 10.9088C20.1485 15.905 16.0644 19.9698 11.046 19.9698ZM16.04 13.1836C15.7664 13.0472 14.4207 12.3884 14.1697 12.2974C13.919 12.2065 13.7363 12.1612 13.5541 12.4338C13.3715 12.7064 12.8471 13.32 12.6873 13.5017C12.5276 13.6835 12.3681 13.7063 12.0943 13.5699C11.8206 13.4336 10.9387 13.1459 9.89321 12.2179C9.07961 11.4956 8.53035 10.6036 8.3706 10.331C8.21113 10.0582 8.36922 9.92496 8.49066 9.77508C8.78695 9.40892 9.08365 9.02502 9.17487 8.84335C9.2662 8.6615 9.22047 8.50242 9.15194 8.36612C9.08365 8.22982 8.53629 6.88906 8.30826 6.34349C8.08592 5.81257 7.86044 5.88424 7.69233 5.87596C7.53286 5.86802 7.35032 5.8664 7.16777 5.8664C6.98533 5.8664 6.68877 5.93447 6.43783 6.20733C6.187 6.48007 5.48003 7.13897 5.48003 8.47973C5.48003 9.82049 6.46076 11.1157 6.59758 11.2975C6.73436 11.4794 8.52766 14.2307 11.2732 15.4104C11.9262 15.6914 12.436 15.8588 12.8336 15.9843C13.4893 16.1917 14.0858 16.1624 14.5575 16.0923C15.0834 16.014 16.1767 15.4333 16.405 14.797C16.633 14.1607 16.633 13.6154 16.5645 13.5017C16.4962 13.3881 16.3137 13.32 16.04 13.1836Z" fill="#102E46"/>
</svg>
