<svg width="20" height="20" viewBox="0 0 20 20" fill="none" xmlns="http://www.w3.org/2000/svg">
<g clip-path="url(#clip0_232_9348)">
<path d="M10 3.46564C5.58869 3.46564 1.78673 6.06608 0.0402296 9.81869C-0.0134099 9.93241 -0.0134099 10.0654 0.0402296 10.1813C1.78673 13.9339 5.58871 16.5343 10 16.5343C14.4113 16.5343 18.2133 13.9339 19.9598 10.1813C20.0134 10.0676 20.0134 9.93455 19.9598 9.81869C18.2133 6.06608 14.4113 3.46564 10 3.46564ZM10 14.5089C7.50899 14.5089 5.49214 12.4899 5.49214 10.0011C5.49214 7.51005 7.51113 5.49321 10 5.49321C12.491 5.49321 14.5079 7.5122 14.5079 10.0011C14.5079 12.4899 12.4889 14.5089 10 14.5089Z" fill="#40AD6B"/>
<path d="M10 12.8847C11.5938 12.8847 12.8858 11.5927 12.8858 9.9989C12.8858 8.40512 11.5938 7.1131 10 7.1131C8.40621 7.1131 7.1142 8.40512 7.1142 9.9989C7.1142 11.5927 8.40621 12.8847 10 12.8847Z" fill="#40AD6B"/>
</g>
<defs>
<clipPath id="clip0_232_9348">
<rect width="20" height="20" fill="white"/>
</clipPath>
</defs>
</svg>
