<svg width="24" height="24" viewBox="0 0 24 24" fill="none" xmlns="http://www.w3.org/2000/svg">
<g clip-path="url(#clip0_91_1055)">
<mask id="mask0_91_1055" style="mask-type:luminance" maskUnits="userSpaceOnUse" x="0" y="0" width="24" height="24">
<path d="M24 0H0V24H24V0Z" fill="white"/>
</mask>
<g mask="url(#mask0_91_1055)">
<path d="M11.5075 24H12.5069C17.9318 24 20.6448 24 22.3296 22.3152C24.0144 20.6304 24 17.9184 24 12.5069V11.4931C24 6.08256 24 3.36961 22.3296 1.68481C20.6592 4.86374e-06 17.9318 0 12.5069 0H11.5075C6.0816 0 3.3696 4.86374e-06 1.6848 1.68481C-1.00136e-06 3.36961 0 6.08064 0 11.4931V12.5069C0 17.9184 -1.00136e-06 20.6304 1.6848 22.3152C3.3696 24 6.0816 24 11.5075 24Z" fill="#0077FF"/>
<path d="M12.8784 17.3038C7.46683 17.3038 4.18267 13.5492 4.05499 7.31018H6.79579C6.88123 11.8932 8.96635 13.8382 10.5648 14.2347V7.31018H13.1923V11.2644C14.734 11.0935 16.3468 9.2945 16.8902 7.31018H19.4736C19.0598 9.75146 17.304 11.5505 16.0617 12.2926C17.304 12.8926 19.3027 14.4631 20.0736 17.3038H17.2329C16.6329 15.4049 15.1622 13.9342 13.1923 13.7345V17.3038H12.8784Z" fill="white"/>
</g>
</g>
<defs>
<clipPath id="clip0_91_1055">
<rect width="24" height="24" fill="white"/>
</clipPath>
</defs>
</svg>
